<svg xmlns="http://www.w3.org/2000/svg" width="34.815" height="31.334" viewBox="0 0 34.815 31.334">
  <path id="photo_camera_24dp_FILL0_wght400_GRAD0_opsz24" d="M97.408-814.76a7.553,7.553,0,0,0,5.549-2.283,7.557,7.557,0,0,0,2.285-5.549,7.561,7.561,0,0,0-2.285-5.55,7.56,7.56,0,0,0-5.549-2.283,7.559,7.559,0,0,0-5.549,2.283,7.561,7.561,0,0,0-2.285,5.55,7.557,7.557,0,0,0,2.285,5.549A7.553,7.553,0,0,0,97.408-814.76Zm0-3.48a4.2,4.2,0,0,1-3.09-1.263,4.2,4.2,0,0,1-1.262-3.089,4.2,4.2,0,0,1,1.262-3.091,4.2,4.2,0,0,1,3.09-1.261,4.2,4.2,0,0,1,3.09,1.261,4.2,4.2,0,0,1,1.262,3.091A4.2,4.2,0,0,1,100.5-819.5,4.2,4.2,0,0,1,97.408-818.24Zm-13.926,9.574a3.354,3.354,0,0,1-2.459-1.023A3.351,3.351,0,0,1,80-812.147v-20.891a3.351,3.351,0,0,1,1.023-2.458,3.354,3.354,0,0,1,2.459-1.023h5.483l2.176-2.349a3.479,3.479,0,0,1,1.153-.826,3.384,3.384,0,0,1,1.414-.3h7.4a3.384,3.384,0,0,1,1.414.3,3.478,3.478,0,0,1,1.153.826l2.176,2.349h5.483a3.354,3.354,0,0,1,2.459,1.023,3.351,3.351,0,0,1,1.023,2.458v20.891a3.351,3.351,0,0,1-1.023,2.458,3.354,3.354,0,0,1-2.459,1.023Zm0-3.482h27.852v-20.891h-7.05l-3.177-3.482h-7.4l-3.177,3.482h-7.05ZM97.408-822.592Z" transform="translate(-80 840)" fill="#fff"/>
</svg>
