<svg xmlns="http://www.w3.org/2000/svg" width="19.095" height="19.095" viewBox="0 0 19.095 19.095">
  <path id="community_ico2" d="M49.547-916.528a.837.837,0,0,1-.618-.25.839.839,0,0,1-.25-.619v-1.735a.839.839,0,0,1,.25-.619.84.84,0,0,1,.618-.25.84.84,0,0,1,.618.25.839.839,0,0,1,.25.619v1.735a.839.839,0,0,1-.25.619A.837.837,0,0,1,49.547-916.528Zm4.3,1.78a.811.811,0,0,1-.239-.6.884.884,0,0,1,.239-.619l1.215-1.236a.842.842,0,0,1,.618-.26.842.842,0,0,1,.618.26.82.82,0,0,1,.239.607.823.823,0,0,1-.239.607l-1.237,1.237a.824.824,0,0,1-.608.238A.824.824,0,0,1,53.844-914.749Zm2.647,5.164a.843.843,0,0,1-.618-.25.84.84,0,0,1-.25-.619.84.84,0,0,1,.25-.619.84.84,0,0,1,.618-.249h1.736a.84.84,0,0,1,.618.249.84.84,0,0,1,.25.619.84.84,0,0,1-.25.619.844.844,0,0,1-.618.25Zm-6.944,8.679a.837.837,0,0,1-.618-.25.84.84,0,0,1-.25-.618v-1.737a.842.842,0,0,1,.25-.619.84.84,0,0,1,.618-.249.84.84,0,0,1,.618.249.842.842,0,0,1,.25.619v1.737a.84.84,0,0,1-.25.618A.837.837,0,0,1,49.547-900.905Zm-5.511-13.843L42.8-915.964a.857.857,0,0,1-.26-.629.785.785,0,0,1,.26-.607.821.821,0,0,1,.608-.239.821.821,0,0,1,.608.239l1.237,1.236a.822.822,0,0,1,.239.607.824.824,0,0,1-.239.608.872.872,0,0,1-.608.238A.872.872,0,0,1,44.036-914.749ZM55.059-903.7l-1.215-1.237a.885.885,0,0,1-.239-.619.811.811,0,0,1,.239-.6.81.81,0,0,1,.6-.238.885.885,0,0,1,.618.238l1.237,1.215a.755.755,0,0,1,.25.608.943.943,0,0,1-.25.629.86.86,0,0,1-.629.259A.79.79,0,0,1,55.059-903.7Zm-14.191-5.88a.843.843,0,0,1-.618-.25.84.84,0,0,1-.25-.619.841.841,0,0,1,.25-.619.84.84,0,0,1,.618-.249H42.6a.84.84,0,0,1,.618.249.84.84,0,0,1,.25.619.84.84,0,0,1-.25.619.843.843,0,0,1-.618.25ZM42.8-903.7a.824.824,0,0,1-.239-.608.823.823,0,0,1,.239-.607l1.237-1.237a.81.81,0,0,1,.6-.238.885.885,0,0,1,.618.238.845.845,0,0,1,.26.619.847.847,0,0,1-.26.619L44.036-903.7a.86.86,0,0,1-.629.259A.79.79,0,0,1,42.8-903.7Zm6.748-1.541a5.022,5.022,0,0,1-3.689-1.519,5.024,5.024,0,0,1-1.519-3.689,5.021,5.021,0,0,1,1.519-3.689,5.022,5.022,0,0,1,3.689-1.519,5.022,5.022,0,0,1,3.689,1.519,5.022,5.022,0,0,1,1.519,3.689,5.024,5.024,0,0,1-1.519,3.689A5.022,5.022,0,0,1,49.547-905.245Zm0-1.736A3.342,3.342,0,0,0,52-908a3.342,3.342,0,0,0,1.02-2.452A3.341,3.341,0,0,0,52-912.9a3.342,3.342,0,0,0-2.452-1.02A3.342,3.342,0,0,0,47.1-912.9a3.341,3.341,0,0,0-1.02,2.452A3.342,3.342,0,0,0,47.1-908,3.342,3.342,0,0,0,49.547-906.981ZM49.547-910.453Z" transform="translate(-40 920)" fill="#fff"/>
</svg>
