<svg xmlns="http://www.w3.org/2000/svg" width="16.924" height="16.5" viewBox="0 0 16.924 16.5">
  <path id="community_ico3" d="M125.91-829.821l-6.477,6.43a.922.922,0,0,1-.645.27.872.872,0,0,1-.669-.27.89.89,0,0,1-.258-.657.9.9,0,0,1,.258-.659l8.964-8.961a3.453,3.453,0,0,1-.117-2.23,4.554,4.554,0,0,1,1.337-2.229,4.81,4.81,0,0,1,2.769-1.455,2.782,2.782,0,0,1,2.487.752,2.782,2.782,0,0,1,.751,2.487,4.808,4.808,0,0,1-1.455,2.769,4.558,4.558,0,0,1-2.229,1.337,3.458,3.458,0,0,1-2.229-.117l-1.173,1.173,6.477,6.475a.924.924,0,0,1,.27.646.876.876,0,0,1-.27.67.892.892,0,0,1-.657.257.892.892,0,0,1-.657-.257Zm-4.365-.938-2.816-2.815a4.5,4.5,0,0,1-1.244-2.488,3.411,3.411,0,0,1,.587-2.675.946.946,0,0,1,.692-.4.838.838,0,0,1,.739.282l5.045,5.092Z" transform="translate(-117.426 839.62)" fill="#fff"/>
</svg>
