<svg xmlns="http://www.w3.org/2000/svg" width="19.095" height="16.751" viewBox="0 0 19.095 16.751">
  <path id="community_ico1" d="M43.255-835.249a1.643,1.643,0,0,1-1.389-.705,1.945,1.945,0,0,1-.347-1.595,16.675,16.675,0,0,0,.325-2.213q.087-1.107.108-2.213a3.04,3.04,0,0,1-1.421-1.107A2.914,2.914,0,0,1,40-844.8v-.608a1.539,1.539,0,0,1,.293-.911,1.723,1.723,0,0,1,.77-.607,21.134,21.134,0,0,0,3.884-2.041,38.4,38.4,0,0,0,3.515-2.647,1.749,1.749,0,0,1,.51-.293,1.69,1.69,0,0,1,.575-.1,1.689,1.689,0,0,1,.575.1,1.749,1.749,0,0,1,.51.293,38.4,38.4,0,0,0,3.515,2.647,21.134,21.134,0,0,0,3.884,2.041,1.723,1.723,0,0,1,.77.607,1.539,1.539,0,0,1,.293.911v.608a2.914,2.914,0,0,1-.532,1.713,3.04,3.04,0,0,1-1.421,1.107q.022,1.107.109,2.213a16.666,16.666,0,0,0,.325,2.213,1.945,1.945,0,0,1-.347,1.595,1.643,1.643,0,0,1-1.389.705Zm1-11.284H54.842a30.184,30.184,0,0,1-2.745-1.736q-1.313-.933-2.55-2-1.237,1.063-2.55,2A30.188,30.188,0,0,1,44.253-846.532Zm7.464,3.038a1.256,1.256,0,0,0,.922-.379,1.256,1.256,0,0,0,.38-.922h-2.6a1.256,1.256,0,0,0,.38.922A1.256,1.256,0,0,0,51.717-843.495Zm-4.34,0a1.256,1.256,0,0,0,.922-.379,1.256,1.256,0,0,0,.38-.922h-2.6a1.256,1.256,0,0,0,.38.922A1.256,1.256,0,0,0,47.378-843.495Zm-4.34,0a1.256,1.256,0,0,0,.922-.379,1.256,1.256,0,0,0,.38-.922h-2.6a1.256,1.256,0,0,0,.38.922A1.256,1.256,0,0,0,43.038-843.495Zm.13,6.51H45.49q.2-1.3.3-2.582t.174-2.582a4.17,4.17,0,0,1-.4-.228,2.224,2.224,0,0,1-.358-.294,3.124,3.124,0,0,1-.694.521,3.416,3.416,0,0,1-.825.325q-.043,1.237-.152,2.441A19.432,19.432,0,0,1,43.168-836.984Zm4.079,0h4.6q-.173-1.194-.271-2.387t-.163-2.409a2.875,2.875,0,0,1-1.02-.272,3.053,3.053,0,0,1-.846-.6,3.053,3.053,0,0,1-.846.6,2.875,2.875,0,0,1-1.02.272q-.065,1.215-.163,2.409T47.247-836.984Zm6.358,0h2.322a19.433,19.433,0,0,1-.369-2.4q-.109-1.2-.152-2.441a3.674,3.674,0,0,1-.825-.315,2.6,2.6,0,0,1-.694-.532,2.223,2.223,0,0,1-.358.294,4.17,4.17,0,0,1-.4.228q.065,1.3.184,2.582T53.605-836.984Zm2.452-6.51a1.256,1.256,0,0,0,.922-.379,1.256,1.256,0,0,0,.38-.922h-2.6a1.256,1.256,0,0,0,.38.922A1.256,1.256,0,0,0,56.057-843.495Z" transform="translate(-40 852)" fill="#fff"/>
</svg>
