<svg xmlns="http://www.w3.org/2000/svg" width="23" height="15.682" viewBox="0 0 23 15.682">
  <path id="community_ico4" d="M41.045-784.318a1.012,1.012,0,0,1-.745-.3,1.012,1.012,0,0,1-.3-.745v-13.591a1.012,1.012,0,0,1,.3-.745,1.012,1.012,0,0,1,.745-.3,1.012,1.012,0,0,1,.745.3,1.012,1.012,0,0,1,.3.745v9.409h8.364v-6.272a2.012,2.012,0,0,1,.614-1.477,2.015,2.015,0,0,1,1.477-.614h6.273a4.025,4.025,0,0,1,2.953,1.229A4.025,4.025,0,0,1,63-793.728v8.363a1.012,1.012,0,0,1-.3.745,1.013,1.013,0,0,1-.745.3,1.013,1.013,0,0,1-.745-.3,1.012,1.012,0,0,1-.3-.745v-2.091H42.091v2.091a1.012,1.012,0,0,1-.3.745A1.012,1.012,0,0,1,41.045-784.318Zm5.227-6.273a3.026,3.026,0,0,1-2.222-.914,3.026,3.026,0,0,1-.915-2.222,3.023,3.023,0,0,1,.915-2.222,3.027,3.027,0,0,1,2.222-.915,3.027,3.027,0,0,1,2.222.915,3.023,3.023,0,0,1,.915,2.222,3.026,3.026,0,0,1-.915,2.222A3.026,3.026,0,0,1,46.273-790.592Zm6.273,1.046h8.364v-4.182a2.012,2.012,0,0,0-.614-1.477,2.011,2.011,0,0,0-1.477-.614H52.545Zm-6.273-3.137a1.015,1.015,0,0,0,.745-.3,1.014,1.014,0,0,0,.3-.745,1.012,1.012,0,0,0-.3-.745,1.012,1.012,0,0,0-.745-.3,1.013,1.013,0,0,0-.745.3,1.012,1.012,0,0,0-.3.745,1.014,1.014,0,0,0,.3.745A1.016,1.016,0,0,0,46.273-792.683ZM46.273-793.728Zm6.273-2.091v0Z" transform="translate(-40 800)" fill="#fff"/>
</svg>
