<svg xmlns="http://www.w3.org/2000/svg" width="10.833" height="10.833" viewBox="0 0 10.833 10.833">
  <path id="family_ico" d="M204.643-753.81h-3.869a.748.748,0,0,1-.551-.223.747.747,0,0,1-.222-.551.747.747,0,0,1,.222-.551.746.746,0,0,1,.551-.223h3.869v-3.869a.749.749,0,0,1,.222-.551.75.75,0,0,1,.551-.222.749.749,0,0,1,.551.222.749.749,0,0,1,.222.551v3.869h3.869a.746.746,0,0,1,.551.223.748.748,0,0,1,.222.551.748.748,0,0,1-.222.551.748.748,0,0,1-.551.223H206.19v3.869a.749.749,0,0,1-.222.552.75.75,0,0,1-.551.223.75.75,0,0,1-.551-.223.749.749,0,0,1-.222-.552Z" transform="translate(-200 760)" fill="#fff"/>
</svg>
