<svg xmlns="http://www.w3.org/2000/svg" xmlns:xlink="http://www.w3.org/1999/xlink" width="240" height="40.572" viewBox="0 0 240 40.572">
  <defs>
    <clipPath id="clip-path">
      <rect id="사각형_20" data-name="사각형 20" width="154.233" height="40.572" fill="none"/>
    </clipPath>
  </defs>
  <g id="logo" transform="translate(-330 -30.214)">
    <g id="그룹_2" data-name="그룹 2" transform="translate(330 30.214)">
      <g id="그룹_1" data-name="그룹 1" transform="translate(0 0)" clip-path="url(#clip-path)">
        <path id="패스_1" data-name="패스 1" d="M57.6,20.285c0,11.2-12.895,20.287-28.8,20.287S0,31.49,0,20.285,12.895,0,28.8,0,57.6,9.084,57.6,20.285" transform="translate(0 0)" fill="#0d3896"/>
        <path id="패스_2" data-name="패스 2" d="M34.914,38.122c-12.317-.554-12.662-1.114-10.4-1.163,0,0,46.285-1.988,11.5-4.574,0,0-5.586-.445,9.345-.908,0,0,3.842-.674-16.083-2.022,0,0,3.982-1.814,17.205-1.294l-4.322-8.876s-.708-3.682-1.013-4.915S40.037.453,40.037.453c-1.3.164-2.873.281-2.873.281-5.447-.3-13.442,2.414-13.442,2.414l-1.793.364L21.8,5.832a17.607,17.607,0,0,1,.128,4.761c.112,2.055-2.664,6.672-2.664,6.672l1.718,4.928-.08,2.922,1.8,4.395s11.2,1.16,14.361,1.006c0,0,7.146.345-2.612.8,0,0-27.41-.106-20.194,1.036,0,0,12.893,1.108,19.647,1.575,0,0,7.442.863-11.678,1.992,0,0-8.96.688-.353,2.364,0,0,14.152,2.21,26.068.014,0,0,3.91-1.117-1.409-.611,0,0-10.35.493-11.614.436" transform="translate(-4.973 -0.173)" fill="#fff"/>
        <path id="패스_3" data-name="패스 3" d="M75.2,30.269s-8.261-.452-9.434,1.863c0,0-2.575,3.673,7.135,2.861,0,0-.7-2.548,2.3-4.724" transform="translate(-24.956 -11.527)" fill="#fc0"/>
        <path id="패스_4" data-name="패스 4" d="M43.687,23.623s-8.237-.463-9.408,1.919c0,0-2.568,3.778,7.114,2.94,0,0-.7-2.62,2.294-4.86" transform="translate(-12.952 -8.992)" fill="#40a629"/>
        <path id="패스_5" data-name="패스 5" d="M58.633,10.291s-8.041-.448-9.18,1.851c0,0-2.506,3.644,6.943,2.84,0,0-.684-2.532,2.237-4.691" transform="translate(-18.74 -3.91)" fill="#ff7f00"/>
        <path id="패스_6" data-name="패스 6" d="M118.412,19.9a2.534,2.534,0,0,1-2.023,1.012,2.493,2.493,0,0,1-2-.994,3.578,3.578,0,0,1,0-4.542,2.507,2.507,0,0,1,2-.978,2.623,2.623,0,0,1,2.023.926,3.317,3.317,0,0,1,.833,2.3,3.5,3.5,0,0,1-.833,2.279M137.1,18.731H132.66v-6.8h-6.916v1.417h.682a1.288,1.288,0,0,1,1.026.4,1.257,1.257,0,0,1,.341.822V24.34a8.658,8.658,0,0,1-1.571.3c-.616.066-1.534.1-2.377.1h-5.067V23.1a8.091,8.091,0,0,0,3.683-2.083,4.754,4.754,0,0,0,1.385-3.36,5,5,0,0,0-2.219-4.11,9.405,9.405,0,0,0-10.711,0,5,5,0,0,0-2.2,4.11,4.75,4.75,0,0,0,1.383,3.36,7.964,7.964,0,0,0,3.612,2.083v1.642h-6.883v2.824H122.48c1.207,0,2.405-.022,3.213-.07a11.389,11.389,0,0,0,2.1-.3v3.723h4.866v-9.41H137.1Zm-4.1,16.1H117.973a.569.569,0,0,1-.376-.114.381.381,0,0,1-.135-.312V29.217h-7.089v1.416h.685a1.4,1.4,0,0,1,1.022.341,1.118,1.118,0,0,1,.344.824v3.626a2.112,2.112,0,0,0,.683,1.744,3.277,3.277,0,0,0,2.084.552H133Z" transform="translate(-40.727 -4.525)" fill="#fff"/>
        <path id="패스_7" data-name="패스 7" d="M159.705,17.158a1.133,1.133,0,0,0-.333-.822,1.31,1.31,0,0,0-.986-.34h-.661V14.58h24.258v2.665H164.6V24.01a.506.506,0,0,0,.181.424.7.7,0,0,0,.446.142h16.923v2.609H163.5a4.372,4.372,0,0,1-2.885-.78,3.261,3.261,0,0,1-.906-2.593Zm13.576,17.08h11.5v2.8H156.822v-2.8h11.565l-.038-2.831a1.025,1.025,0,0,0-.313-.78,1.172,1.172,0,0,0-.841-.3h-.527V28.94h6.576Z" transform="translate(-59.79 -5.559)" fill="#fff"/>
        <path id="패스_8" data-name="패스 8" d="M212.521,29.3v6.119a.4.4,0,0,0,.131.312.541.541,0,0,0,.362.114h16.52v2.669h-19.2a3.088,3.088,0,0,1-2.013-.553,2.153,2.153,0,0,1-.656-1.742V31.877a1.133,1.133,0,0,0-.331-.822,1.319,1.319,0,0,0-.991-.34h-.658V29.3ZM228.187,23.2h3.653v2.833H221.014v6.042h-5.09V26.037h-12.37V23.2h19.8A4.161,4.161,0,0,0,224,21.419a26.173,26.173,0,0,0,.115-2.738V17.095a.559.559,0,0,0-.13-.427.878.878,0,0,0-.528-.114H206.338V13.849h22.346a.369.369,0,0,1,.246.072.258.258,0,0,1,.081.211v4.2a22.544,22.544,0,0,1-.18,3.162,3.916,3.916,0,0,1-.643,1.713" transform="translate(-77.607 -5.28)" fill="#fff"/>
      </g>
    </g>
    <line id="선_10" data-name="선 10" y2="28" transform="translate(490 38)" fill="none" stroke="#fff" stroke-width="1" opacity="0.2"/>
    <text id="청산도" transform="translate(494 62)" fill="#fff" font-size="27" font-family="S-CoreDream-5Medium, 'S-Core Dream \35 '" font-weight="500" letter-spacing="-0.05em"><tspan x="0" y="0">청산도</tspan></text>
  </g>
</svg>
