<svg width="19" height="19" viewBox="0 0 19 19" fill="none" xmlns="http://www.w3.org/2000/svg">
<mask id="mask0_21_126" style="mask-type:alpha" maskUnits="userSpaceOnUse" x="0" y="0" width="19" height="19">
<rect x="0.38623" y="0.0791016" width="18" height="18" fill="#D9D9D9"/>
</mask>
<g mask="url(#mask0_21_126)">
<path d="M10.5863 9.0792L8.28008 11.3854L8.63633 11.7604L11.3176 9.0792L8.63633 6.39795L8.28008 6.77295L10.5863 9.0792ZM9.38952 15.6042C8.48739 15.6042 7.63908 15.433 6.84458 15.0906C6.05008 14.7483 5.35902 14.2836 4.77139 13.6966C4.18364 13.1096 3.71839 12.4194 3.37564 11.626C3.03277 10.8325 2.86133 9.98464 2.86133 9.08239C2.86133 8.18026 3.03252 7.33195 3.37489 6.53745C3.71727 5.74295 4.18195 5.05189 4.76895 4.46426C5.35595 3.87651 6.04614 3.41126 6.83952 3.06851C7.63302 2.72564 8.48089 2.5542 9.38314 2.5542C10.2853 2.5542 11.1336 2.72539 11.9281 3.06776C12.7226 3.41014 13.4136 3.87482 14.0013 4.46182C14.589 5.04882 15.0543 5.73901 15.397 6.53239C15.7399 7.32589 15.9113 8.17376 15.9113 9.07601C15.9113 9.97814 15.7401 10.8264 15.3978 11.6209C15.0554 12.4154 14.5907 13.1065 14.0037 13.6941C13.4167 14.2819 12.7265 14.7471 11.9331 15.0899C11.1396 15.4328 10.2918 15.6042 9.38952 15.6042ZM9.38633 15.0792C11.0613 15.0792 12.4801 14.4979 13.6426 13.3354C14.8051 12.1729 15.3863 10.7542 15.3863 9.0792C15.3863 7.4042 14.8051 5.98545 13.6426 4.82295C12.4801 3.66045 11.0613 3.0792 9.38633 3.0792C7.71133 3.0792 6.29258 3.66045 5.13008 4.82295C3.96758 5.98545 3.38633 7.4042 3.38633 9.0792C3.38633 10.7542 3.96758 12.1729 5.13008 13.3354C6.29258 14.4979 7.71133 15.0792 9.38633 15.0792Z" fill="white"/>
</g>
</svg>
