<svg width="182" height="70" viewBox="0 0 182 70" fill="none" xmlns="http://www.w3.org/2000/svg">
<g clip-path="url(#clip0_21_47)">
<path d="M37.4691 45.0442C34.1558 45.0486 31.4282 47.6348 31.4282 50.871C31.4282 54.1071 34.1558 56.6672 37.4691 56.676C40.813 56.6629 43.5187 54.0766 43.5187 50.871C43.5187 47.6654 40.813 45.0486 37.4691 45.0442ZM37.386 54.0199C35.6551 54.0199 34.3438 52.6068 34.3438 50.8753C34.3438 49.1439 35.7425 47.7003 37.4647 47.7003C39.1869 47.7003 40.5376 49.109 40.5376 50.8753C40.5376 52.6417 39.1214 54.0199 37.3817 54.0199H37.386Z" fill="white"/>
<path d="M9.73886 41.0317C10.6655 41.9433 11.7233 42.737 12.7593 43.2517L12.8686 43.3084L14.652 41.2018L14.4815 41.1059C12.7855 40.19 11.4567 39.0342 10.5912 37.5732C9.73012 36.1383 9.28864 34.4635 9.28864 32.4704V30.595H6.09772V32.2697C6.09772 34.433 5.60379 36.1339 4.68586 37.6255C3.65427 39.2741 2.12876 40.6043 0.174868 41.8342L0.00439453 41.9389L1.94517 43.9408L2.05008 43.8797C3.19968 43.2517 4.42359 42.2878 5.49014 41.2149C6.41245 40.2772 7.21236 39.2654 7.69318 38.3102C8.16089 39.2436 8.88212 40.1987 9.74323 41.0186L9.73886 41.0317Z" fill="white"/>
<path d="M6.29004 55.3021H19.6569V46.1912H6.29004V55.3021ZM9.29299 48.7644H16.6496V52.7332H9.28862V48.7644H9.29299Z" fill="white"/>
<path d="M19.705 30.0585H16.7371V45.1488H19.705V38.4716H23.1888V35.7893H19.705V30.0585Z" fill="white"/>
<path d="M95.5089 41.8037C96.4836 42.6498 97.6026 43.3607 98.6517 43.8187L98.761 43.871L100.365 41.7034L100.195 41.6206C98.6648 40.8355 97.2967 39.8673 96.3175 38.6897C95.3165 37.4816 94.7221 36.0293 94.7221 34.276V33.7614H99.1413V31.162H87.1338V33.7614H91.553V34.385C91.553 35.9769 91.0197 37.4642 90.1455 38.7508C89.1139 40.2947 87.6059 41.542 86.1459 42.3445L85.9536 42.4492L87.925 44.486L88.0343 44.4336C89.1008 43.8318 90.2723 42.9202 91.2776 41.8997C92.0819 41.0579 92.8031 40.1682 93.2446 39.2829C93.7779 40.1421 94.5953 41.0056 95.5089 41.8081V41.8037Z" fill="white"/>
<path d="M117.006 48.8255H127.811V55.3021H130.814V46.2479H117.006V48.8255Z" fill="white"/>
<path d="M124.463 38.4498C124.463 37.0236 123.825 35.7108 122.872 34.7077H125.84V32.1389H120.175V29.3083H116.958V32.1389H111.157V34.7077H114.187C113.264 35.7108 112.617 37.0105 112.617 38.4498C112.617 41.6292 115.244 44.2155 118.532 44.2242C121.819 44.2155 124.463 41.6292 124.468 38.4498H124.463ZM115.481 38.332C115.481 36.57 116.971 35.0784 118.527 35.0784C120.083 35.0784 121.569 36.5788 121.574 38.332C121.574 40.0635 120.083 41.5594 118.527 41.5638C116.967 41.5594 115.481 40.0635 115.481 38.332Z" fill="white"/>
<path d="M130.814 30.0585H127.846V45.2012H130.814V39.4223H134.302V36.7445H130.814V30.0585Z" fill="white"/>
<path d="M105.637 30.0585H102.664V45.2012H105.637V38.4716H109.12V35.7893H105.637V30.0585Z" fill="white"/>
<path d="M173.183 41.4766H163.139V33.8442H170.792V31.1576H160.131V44.0847H173.183V41.4766Z" fill="white"/>
<path d="M41.1017 34.5507H36.429V37.2068H41.1017V45.6765H44.074V30.0585H41.1017V34.5507Z" fill="white"/>
<path d="M33.5483 41.4243C34.475 42.3358 35.5546 43.1296 36.595 43.666L36.7086 43.7315L38.4964 41.6249L38.3216 41.5246C36.6256 40.6436 35.323 39.4878 34.4531 38.0486C33.5658 36.6224 33.1243 34.8866 33.1243 32.8891V30.5994H29.9247V32.7015C29.9247 34.8648 29.4395 36.5614 28.539 38.0268C27.5074 39.7059 25.9601 41.0405 24.0018 42.266L23.8357 42.3707L25.7808 44.3813L25.877 44.3202C27.031 43.6922 28.2243 42.7807 29.2865 41.7383C30.2437 40.7832 31.048 39.7495 31.5289 38.7464C31.9878 39.6536 32.6916 40.5869 33.5396 41.4243H33.5483Z" fill="white"/>
<path d="M99.2594 45.0442C95.9461 45.0486 93.2185 47.6348 93.2141 50.871C93.2185 54.0766 95.9461 56.6672 99.2594 56.676C102.599 56.6629 105.309 54.0766 105.309 50.871C105.309 47.6654 102.599 45.0486 99.2594 45.0442ZM99.1719 54.0199C97.4454 54.0199 96.1296 52.6068 96.1296 50.8753C96.1296 49.1439 97.524 47.7003 99.2594 47.7003C100.995 47.7003 102.328 49.109 102.332 50.8753C102.328 52.6068 100.912 54.0199 99.1719 54.0199Z" fill="white"/>
<path d="M167.505 47.2598H164.498V55.3021H178.556V52.6504H167.505V47.2598Z" fill="white"/>
<path d="M178.486 37.0541V30.0585H175.518V48.6772H178.486V39.7276H182V37.0541H178.486Z" fill="white"/>
<path d="M153.343 36.8797H150.843V30.4859H148.036V54.6522H150.843V39.7887H153.343V55.3021H156.258V30.0585H153.343V36.8797Z" fill="white"/>
<path d="M143.91 40.2292C143.241 38.7682 142.966 37.1414 142.966 35.1351V34.18H146.336V31.4585H136.536V34.18H140.016V35.1831C140.016 37.0803 139.766 38.6286 139.163 40.0678C138.468 41.7164 137.297 43.208 135.43 44.7956L135.299 44.9177L137.144 46.7407L137.257 46.6535C138.184 45.9688 139.154 44.9787 139.967 43.9582C140.649 43.0946 141.226 42.2049 141.593 41.4199C141.965 42.1831 142.546 43.0597 143.224 43.8797C144.015 44.8392 144.902 45.7507 145.755 46.2915L145.873 46.37L147.425 44.5164L147.302 44.403C145.632 42.9507 144.596 41.6554 143.915 40.2249L143.91 40.2292Z" fill="white"/>
<path d="M8.44507 64.0119C7.02009 63.506 6.75345 63.1658 6.75345 62.5814C6.75345 61.997 7.16433 61.5347 8.13909 61.5347C8.85158 61.5347 9.33241 61.7658 9.8482 62.1932L10.3552 61.5695C9.7564 61.0942 9.14445 60.8107 8.19155 60.8107C6.85836 60.8107 5.95791 61.4867 5.95791 62.6294C5.95791 63.6543 6.48244 64.1471 8.0167 64.701C9.31929 65.1677 9.71706 65.5471 9.71706 66.2013C9.71706 66.9558 9.12696 67.4181 8.17843 67.4181C7.44408 67.4181 6.82339 67.0823 6.28574 66.5677L5.75684 67.1565C6.31634 67.7191 7.18619 68.1378 8.15221 68.1378C9.63838 68.1378 10.5126 67.2742 10.5126 66.1621C10.5126 65.0499 10.0274 64.5745 8.44944 64.0032L8.44507 64.0119Z" fill="white"/>
<path d="M13.7429 62.5945C13.0479 62.5945 12.4141 62.7646 11.9464 63.0175L12.2349 63.6368C12.672 63.3839 13.131 63.2269 13.6905 63.2269C14.4686 63.2269 14.8532 63.6107 14.8532 64.4088V65.0412C14.5385 64.8668 14.0577 64.7316 13.5157 64.7316C12.4578 64.7316 11.47 65.2418 11.47 66.4412C11.47 67.7278 12.3486 68.1421 13.1791 68.1421C13.944 68.1421 14.4686 67.7889 14.8488 67.3833V68.0331H15.6094V64.3172C15.6094 63.0786 14.8882 62.5945 13.7429 62.5945ZM14.8532 66.7247C14.5297 67.1696 14.0052 67.5272 13.3146 67.5272C12.6633 67.5272 12.2218 67.1783 12.2218 66.3845C12.2218 65.7172 12.6939 65.3334 13.4763 65.3334C14.1276 65.3334 14.5035 65.4512 14.8488 65.6431V66.7203L14.8532 66.7247Z" fill="white"/>
<path d="M23.2807 64.9147V68.0331H24.0456V64.7839C24.0456 63.2269 23.3681 62.5945 22.2753 62.5945C21.4099 62.5945 20.9727 62.9957 20.658 63.506C20.4045 62.9957 19.9455 62.5945 19.1937 62.5945C18.5599 62.5945 18.1097 62.8954 17.8387 63.3577V62.7079H17.0693V68.0375H17.8387V64.9191C17.8387 63.7372 18.2976 63.253 19.032 63.253C19.7663 63.253 20.1816 63.6979 20.1816 64.9191V68.0375H20.9465V64.9191C20.9465 63.7372 21.4099 63.253 22.1355 63.253C22.9091 63.253 23.2851 63.6979 23.2851 64.9191L23.2807 64.9147Z" fill="white"/>
<path d="M27.1054 64.9409C26.2005 64.5309 25.9295 64.3521 25.9295 63.9029C25.9295 63.5191 26.253 63.24 26.8169 63.24C27.3807 63.24 27.7304 63.3926 28.1457 63.7197L28.5741 63.1571C28.1675 62.8213 27.5993 62.5945 26.8606 62.5945C25.8946 62.5945 25.1952 63.1397 25.1952 63.9509C25.1952 64.8057 25.641 65.1284 26.712 65.5864C27.6561 65.992 27.9752 66.2362 27.9752 66.6724C27.9752 67.1914 27.6299 67.4967 26.8956 67.4967C26.3666 67.4967 25.8683 67.2786 25.44 66.9079L24.9897 67.4661C25.5012 67.8761 26.1393 68.1465 26.8737 68.1465C27.8004 68.1465 28.7052 67.6929 28.7052 66.6462C28.7052 65.6911 28.1151 65.3988 27.1054 64.9453V64.9409Z" fill="white"/>
<path d="M33.1681 65.8175C33.1681 66.9863 32.5824 67.4792 31.848 67.4792C30.9869 67.4792 30.5804 66.9645 30.5804 65.8175V62.7035H29.8198V65.9483C29.8198 67.4792 30.5585 68.1377 31.6863 68.1377C32.3638 68.1377 32.8577 67.8237 33.1637 67.3789V68.0287H33.9287V62.6991H33.1637V65.8131L33.1681 65.8175Z" fill="white"/>
<path d="M39.3271 68.0331V64.7839C39.3271 63.2487 38.584 62.5945 37.4519 62.5945C36.7831 62.5945 36.2848 62.9041 35.9832 63.3577V62.7079H35.2139V68.0375H35.9832V64.9191C35.9832 63.7546 36.5558 63.253 37.3033 63.253C38.1556 63.253 38.5665 63.7721 38.5665 64.9191V68.0375H39.3315L39.3271 68.0331Z" fill="white"/>
<path d="M41.7311 69.4157L41.9759 69.9957C43.9604 69.9303 44.6816 69.1627 44.6816 67.5577V62.7035H43.9211V63.301C43.5452 62.8736 43.0906 62.5945 42.4174 62.5945C41.294 62.5945 40.3979 63.5627 40.3979 65.4555C40.3979 67.3484 41.2459 68.1421 42.3169 68.1421C43.0381 68.1421 43.5495 67.7889 43.9254 67.3833V67.658C43.9254 68.8967 43.5189 69.3633 41.7355 69.4157H41.7311ZM42.5048 67.4836C41.6612 67.4836 41.1498 66.7858 41.1498 65.4468C41.1498 64.0119 41.5869 63.253 42.4742 63.253C43.108 63.253 43.6238 63.6107 43.9167 64.0512V66.716C43.5408 67.187 43.0731 67.4836 42.5005 67.4836H42.5048Z" fill="white"/>
<path d="M53.1048 64.4306C53.1048 61.9926 51.7279 60.9241 49.8571 60.9241H47.9731V68.0331H49.7128C51.6187 68.0331 53.1048 67.0082 53.1048 64.4263V64.4306ZM48.7687 61.6437H49.7959C51.4351 61.6437 52.3093 62.6424 52.3093 64.4568C52.3093 66.5023 51.352 67.3135 49.8134 67.3135H48.7643V61.6437H48.7687Z" fill="white"/>
<path d="M55.1417 63.3664V62.7078H54.3767V68.0374H55.1417V64.9103C55.1417 63.8898 55.5569 63.301 56.3044 63.301C56.6584 63.301 56.8945 63.3795 57.1043 63.5016L57.2966 62.734C57.1174 62.6511 56.8595 62.6031 56.4661 62.6031C55.8935 62.6031 55.3821 62.9433 55.146 63.3751L55.1417 63.3664Z" fill="white"/>
<path d="M61.8644 67.5272L61.5103 66.9777C61.0207 67.3048 60.6536 67.4836 60.0285 67.4836C59.1586 67.4836 58.6166 66.7639 58.5423 65.63H62.1048C62.131 65.5035 62.1397 65.3945 62.1397 65.2113C62.1397 63.6892 61.3835 62.5945 59.9892 62.5945C58.7172 62.5945 57.7817 63.6456 57.7817 65.3378C57.7817 67.4356 58.9707 68.1421 59.9498 68.1421C60.7541 68.1421 61.2262 67.9284 61.8687 67.5272H61.8644ZM59.9804 63.2487C60.9158 63.2487 61.366 63.9683 61.4272 65.0063H58.5423C58.6297 63.8157 59.1849 63.2487 59.9804 63.2487Z" fill="white"/>
<path d="M64.6793 68.1421C65.4443 68.1421 65.9732 67.7889 66.3491 67.3833V68.0331H67.114V64.3172C67.114 63.0786 66.3928 62.5945 65.2388 62.5945C64.5438 62.5945 63.9144 62.7646 63.4467 63.0175L63.7352 63.6368C64.1723 63.3839 64.6312 63.2269 65.1907 63.2269C65.9732 63.2269 66.3491 63.6107 66.3491 64.4088V65.0412C66.0387 64.8668 65.5579 64.7316 65.0246 64.7316C63.9625 64.7316 62.9702 65.2418 62.9702 66.4412C62.9702 67.7278 63.8488 68.1421 64.6793 68.1421ZM64.9766 65.3378C65.6235 65.3378 66.0038 65.4555 66.3491 65.6474V66.7247C66.0256 67.1696 65.5055 67.5272 64.8192 67.5272C64.1329 67.5272 63.7264 67.1783 63.7264 66.3845C63.7264 65.7172 64.1985 65.3334 64.9809 65.3334L64.9766 65.3378Z" fill="white"/>
<path d="M74.781 64.9147V68.0331H75.5415V64.7839C75.5415 63.2269 74.864 62.5945 73.7712 62.5945C72.9057 62.5945 72.4686 62.9957 72.1539 63.506C71.9004 62.9957 71.4458 62.5945 70.6896 62.5945C70.0558 62.5945 69.6099 62.8954 69.3345 63.3577V62.7079H68.574V68.0375H69.3345V64.9191C69.3345 63.7372 69.7935 63.253 70.5279 63.253C71.2622 63.253 71.6775 63.6979 71.6775 64.9191V68.0375H72.438V64.9191C72.438 63.7372 72.9057 63.253 73.6313 63.253C74.4007 63.253 74.781 63.6979 74.781 64.9191V64.9147Z" fill="white"/>
<path d="M81.2546 64.0119C79.8297 63.506 79.5674 63.1702 79.5674 62.5814C79.5674 61.9926 79.9739 61.5347 80.9487 61.5347C81.6655 61.5347 82.142 61.7658 82.6578 62.1933L83.1648 61.5739C82.566 61.0985 81.954 60.8151 81.0011 60.8151C79.6679 60.8151 78.7718 61.4867 78.7718 62.6294C78.7718 63.6543 79.2876 64.1515 80.8306 64.6967C82.1332 65.1677 82.531 65.5428 82.531 66.2014C82.531 66.9515 81.9409 67.4182 80.9924 67.4182C80.258 67.4182 79.6373 67.078 79.0953 66.5633L78.5664 67.1478C79.1259 67.7191 79.9958 68.1334 80.9574 68.1334C82.4392 68.1334 83.3178 67.2699 83.3178 66.1577C83.3178 65.0456 82.8326 64.5702 81.2546 63.9989V64.0119Z" fill="white"/>
<path d="M86.5612 63.253C87.0988 63.253 87.4573 63.4449 87.8419 63.7939L88.3009 63.2225C87.8813 62.8562 87.3305 62.5945 86.6093 62.5945C85.4903 62.5945 84.3101 63.4231 84.3101 65.3988C84.3101 67.2568 85.381 68.1465 86.5612 68.1465C87.3086 68.1465 87.8288 67.863 88.279 67.4051L87.8201 66.921C87.4573 67.2742 87.1076 67.4879 86.5918 67.4879C85.6432 67.4879 85.0837 66.6462 85.0837 65.3334C85.0837 64.0207 85.7307 63.253 86.5655 63.253H86.5612Z" fill="white"/>
<path d="M91.5705 62.5944C90.9018 62.5944 90.3991 62.9041 90.0931 63.3576V60.8499H89.3325V68.0374H90.0931V64.919C90.0931 63.7502 90.6788 63.253 91.4175 63.253C92.2743 63.253 92.6764 63.7676 92.6764 64.919V68.0374H93.4414V64.7838C93.4414 63.253 92.6983 62.5944 91.5662 62.5944H91.5705Z" fill="white"/>
<path d="M96.8508 62.5945C95.5525 62.5945 94.5122 63.5627 94.5122 65.377C94.5122 67.1914 95.5088 68.1465 96.8114 68.1465C98.114 68.1465 99.1543 67.1434 99.1543 65.3334C99.1543 63.5235 98.149 62.5945 96.8508 62.5945ZM96.8333 67.4879C95.9066 67.4879 95.2815 66.7596 95.2815 65.3552C95.2815 63.9509 95.9066 63.253 96.8333 63.253C97.7599 63.253 98.385 63.9552 98.385 65.3552C98.385 66.7552 97.7556 67.4879 96.8333 67.4879Z" fill="white"/>
<path d="M101.073 60.8499H100.308V68.0374H101.073V60.8499Z" fill="white"/>
<path d="M104.562 62.5945C103.871 62.5945 103.237 62.7689 102.774 63.0219L103.058 63.6456C103.495 63.3882 103.954 63.2356 104.513 63.2356C105.296 63.2356 105.672 63.6238 105.672 64.4088V65.0456C105.357 64.8668 104.876 64.7359 104.343 64.7359C103.281 64.7359 102.293 65.2462 102.293 66.4456C102.293 67.7365 103.167 68.1465 104.002 68.1465C104.767 68.1465 105.296 67.7976 105.672 67.3876V68.0375H106.437V64.3216C106.437 63.0786 105.716 62.5945 104.562 62.5945ZM105.672 66.7247C105.348 67.1696 104.824 67.5272 104.138 67.5272C103.491 67.5272 103.049 67.1783 103.049 66.3889C103.049 65.7172 103.521 65.3421 104.304 65.3421C104.955 65.3421 105.331 65.4555 105.676 65.6474V66.7247H105.672Z" fill="white"/>
<path d="M108.657 63.3664V62.7035H107.892V68.0375H108.657V64.9104C108.657 63.8942 109.073 63.2967 109.816 63.2967C110.174 63.2967 110.406 63.3752 110.62 63.4973L110.812 62.7253C110.633 62.6468 110.375 62.5945 109.982 62.5945C109.409 62.5945 108.898 62.9347 108.657 63.3664Z" fill="white"/>
<path d="M113.745 64.9409C112.836 64.5309 112.565 64.3477 112.565 63.8985C112.565 63.5147 112.893 63.2356 113.452 63.2356C114.012 63.2356 114.37 63.3926 114.785 63.7153L115.214 63.1571C114.803 62.8212 114.239 62.5901 113.505 62.5901C112.534 62.5901 111.835 63.1353 111.835 63.9508C111.835 64.8057 112.285 65.1284 113.356 65.582C114.3 65.9876 114.619 66.2318 114.619 66.668C114.619 67.1913 114.27 67.4923 113.544 67.4923C113.011 67.4923 112.512 67.2742 112.084 66.9035L111.638 67.4617C112.145 67.8717 112.788 68.1421 113.522 68.1421C114.444 68.1421 115.354 67.6885 115.354 66.6418C115.354 65.6823 114.764 65.3945 113.754 64.9365L113.745 64.9409Z" fill="white"/>
<path d="M118.829 62.5944C118.156 62.5944 117.657 62.9041 117.351 63.3576V60.8499H116.591V68.0374H117.351V64.919C117.351 63.7502 117.933 63.253 118.676 63.253C119.528 63.253 119.935 63.7676 119.935 64.919V68.0374H120.7V64.7838C120.7 63.253 119.957 62.5944 118.829 62.5944Z" fill="white"/>
<path d="M122.968 62.7035H122.208V68.0374H122.968V62.7035Z" fill="white"/>
<path d="M122.605 60.6624C122.291 60.6624 122.046 60.9066 122.046 61.2162C122.046 61.5085 122.291 61.7527 122.605 61.7527C122.885 61.7527 123.134 61.5085 123.134 61.2162C123.134 60.9066 122.885 60.6624 122.605 60.6624Z" fill="white"/>
<path d="M126.88 62.5945C126.159 62.5945 125.648 62.9478 125.272 63.3577V62.7079H124.511V70.0001H125.272V67.44C125.648 67.863 126.107 68.1465 126.78 68.1465C127.899 68.1465 128.795 67.1696 128.795 65.2854C128.795 63.4013 127.947 62.5945 126.88 62.5945ZM126.719 67.4879C126.089 67.4879 125.569 67.1303 125.272 66.6854V64.025C125.648 63.5627 126.12 63.253 126.688 63.253C127.536 63.253 128.047 63.9552 128.047 65.2942C128.047 66.7247 127.61 67.4879 126.719 67.4879Z" fill="white"/>
<path d="M132.838 61.648H136.23V60.9283H132.043V68.0374H132.838V64.7227H134.792V64.0075H132.838V61.648Z" fill="white"/>
<path d="M138.551 62.5945C137.253 62.5945 136.208 63.5627 136.208 65.377C136.208 67.1914 137.209 68.1465 138.507 68.1465C139.806 68.1465 140.85 67.1434 140.85 65.3334C140.85 63.5235 139.854 62.5945 138.551 62.5945ZM138.529 67.4879C137.603 67.4879 136.982 66.7596 136.982 65.3552C136.982 63.9509 137.603 63.253 138.529 63.253C139.456 63.253 140.09 63.9552 140.09 65.3552C140.09 66.7552 139.46 67.4879 138.529 67.4879Z" fill="white"/>
<path d="M145.068 65.8175C145.068 66.9864 144.491 67.4836 143.748 67.4836C142.892 67.4836 142.485 66.9689 142.485 65.8175V62.7035H141.72V65.9527C141.72 67.4879 142.463 68.1465 143.595 68.1465C144.26 68.1465 144.758 67.8368 145.064 67.3876V68.0374H145.829V62.7035H145.064V65.8175H145.068Z" fill="white"/>
<path d="M149.352 62.5945C148.683 62.5945 148.185 62.9041 147.875 63.3577V62.7079H147.11V68.0418H147.875V64.9235C147.875 63.7546 148.456 63.2574 149.199 63.2574C150.056 63.2574 150.463 63.7721 150.463 64.9235V68.0418H151.223V64.7883C151.223 63.2574 150.48 62.5988 149.348 62.5988L149.352 62.5945Z" fill="white"/>
<path d="M155.821 63.3053C155.446 62.8779 154.987 62.5944 154.313 62.5944C153.194 62.5944 152.298 63.5626 152.298 65.4598C152.298 67.357 153.142 68.1464 154.213 68.1464C154.934 68.1464 155.441 67.7975 155.821 67.3875V68.0374H156.586V60.8499H155.821V63.3097V63.3053ZM155.821 66.7115C155.446 67.1782 154.973 67.4835 154.405 67.4835C153.562 67.4835 153.05 66.7857 153.05 65.4424C153.05 64.0075 153.487 63.2486 154.375 63.2486C155.008 63.2486 155.52 63.6019 155.821 64.0511V66.7115Z" fill="white"/>
<path d="M159.825 62.5945C159.13 62.5945 158.501 62.7689 158.033 63.0219L158.317 63.6456C158.759 63.3882 159.218 63.2356 159.773 63.2356C160.555 63.2356 160.931 63.6238 160.931 64.4088V65.0456C160.617 64.8668 160.136 64.7359 159.598 64.7359C158.545 64.7359 157.552 65.2462 157.552 66.4456C157.552 67.7365 158.431 68.1465 159.266 68.1465C160.031 68.1465 160.555 67.7976 160.931 67.3876V68.0375H161.696V64.3216C161.696 63.0786 160.975 62.5945 159.825 62.5945ZM160.931 66.7247C160.608 67.1696 160.088 67.5272 159.393 67.5272C158.746 67.5272 158.309 67.1783 158.309 66.3889C158.309 65.7172 158.776 65.3421 159.559 65.3421C160.21 65.3421 160.586 65.4555 160.931 65.6474V66.7247Z" fill="white"/>
<path d="M164.131 60.8499H163.366V62.7078H162.706V63.3489H163.366V66.947C163.366 67.828 163.725 68.1508 164.389 68.1508C164.791 68.1508 165.075 68.0941 165.372 67.9676L165.425 67.309C165.18 67.4094 164.979 67.4617 164.669 67.4617C164.262 67.4617 164.131 67.3003 164.131 66.8206V63.3489H165.455V62.7078H164.131V60.8499Z" fill="white"/>
<path d="M167.186 60.6624C166.872 60.6624 166.623 60.9066 166.623 61.2162C166.623 61.5085 166.872 61.7527 167.186 61.7527C167.475 61.7527 167.72 61.5085 167.72 61.2162C167.72 60.9066 167.475 60.6624 167.186 60.6624Z" fill="white"/>
<path d="M167.549 62.7035H166.789V68.0374H167.549V62.7035Z" fill="white"/>
<path d="M171.046 62.5945C169.748 62.5945 168.708 63.5627 168.708 65.377C168.708 67.1914 169.704 68.1465 171.007 68.1465C172.309 68.1465 173.345 67.1434 173.345 65.3334C173.345 63.5235 172.349 62.5945 171.046 62.5945ZM171.024 67.4879C170.102 67.4879 169.481 66.7596 169.481 65.3552C169.481 63.9509 170.102 63.253 171.024 63.253C171.947 63.253 172.585 63.9552 172.585 65.3552C172.585 66.7552 171.955 67.4879 171.024 67.4879Z" fill="white"/>
<path d="M176.685 62.5945C176.012 62.5945 175.513 62.9041 175.207 63.3577V62.7079H174.442V68.0418H175.207V64.9235C175.207 63.7546 175.789 63.2574 176.532 63.2574C177.393 63.2574 177.795 63.7721 177.795 64.9235V68.0418H178.556V64.7883C178.556 63.2574 177.813 62.5988 176.685 62.5988V62.5945Z" fill="white"/>
<path d="M97.8123 11.8324L91.9419 9.40748L97.8123 6.98255L96.7676 4.47041L90.8972 6.89533L93.3319 1.03801L90.8141 0L88.3838 5.85732L85.9491 0L83.4357 1.03801L85.866 6.89533L79.9956 4.47041L78.9553 6.98255L84.8214 9.40748L78.9553 11.8324L79.9956 14.3445L85.866 11.9153L83.4357 17.7726L85.9535 18.815L88.3838 12.9576L90.8141 18.815L93.3319 17.7726L90.8972 11.9153L96.7676 14.3445L97.8123 11.8324Z" fill="white"/>
<path d="M59.8141 28.1832H63.7219V17.7726H50.3682V21.2791H59.8141V28.1832Z" fill="white"/>
<path d="M75.0519 28.1832H78.9553V17.7726H65.6016V21.2791H75.0519V28.1832Z" fill="white"/>
<path d="M49.7388 33.5651H75.0519V38.9253H78.9553V30.0586H49.7388V33.5651Z" fill="white"/>
<path d="M59.1848 55.3022H78.951V40.7308H59.1848V55.3022ZM63.0926 44.2374H75.052V51.7956H63.0926V44.2374Z" fill="white"/>
</g>
<defs>
<clipPath id="clip0_21_47">
<rect width="182" height="70" fill="white"/>
</clipPath>
</defs>
</svg>
