<svg width="19" height="19" viewBox="0 0 19 19" fill="none" xmlns="http://www.w3.org/2000/svg">
<mask id="mask0_21_183" style="mask-type:alpha" maskUnits="userSpaceOnUse" x="0" y="0" width="19" height="19">
<rect x="0.473145" y="0.739746" width="18" height="18" fill="#D9D9D9"/>
</mask>
<g mask="url(#mask0_21_183)">
<path d="M10.6732 9.73984L8.36699 12.0461L8.72324 12.4211L11.4045 9.73984L8.72324 7.05859L8.36699 7.43359L10.6732 9.73984ZM9.47643 16.2648C8.57431 16.2648 7.72599 16.0937 6.93149 15.7513C6.13699 15.4089 5.44593 14.9442 4.8583 14.3572C4.27055 13.7702 3.8053 13.08 3.46255 12.2867C3.11968 11.4932 2.94824 10.6453 2.94824 9.74303C2.94824 8.84091 3.11943 7.99259 3.4618 7.19809C3.80418 6.40359 4.26887 5.71253 4.85587 5.12491C5.44287 4.53716 6.13305 4.07191 6.92643 3.72916C7.71993 3.38628 8.5678 3.21484 9.47005 3.21484C10.3722 3.21484 11.2205 3.38603 12.015 3.72841C12.8095 4.07078 13.5006 4.53547 14.0882 5.12247C14.6759 5.70947 15.1412 6.39966 15.4839 7.19303C15.8268 7.98653 15.9982 8.83441 15.9982 9.73666C15.9982 10.6388 15.8271 11.4871 15.4847 12.2816C15.1423 13.0761 14.6776 13.7672 14.0906 14.3548C13.5036 14.9425 12.8134 15.4078 12.0201 15.7505C11.2266 16.0934 10.3787 16.2648 9.47643 16.2648ZM9.47324 15.7398C11.1482 15.7398 12.567 15.1586 13.7295 13.9961C14.892 12.8336 15.4732 11.4148 15.4732 9.73984C15.4732 8.06484 14.892 6.64609 13.7295 5.48359C12.567 4.32109 11.1482 3.73984 9.47324 3.73984C7.79824 3.73984 6.37949 4.32109 5.21699 5.48359C4.05449 6.64609 3.47324 8.06484 3.47324 9.73984C3.47324 11.4148 4.05449 12.8336 5.21699 13.9961C6.37949 15.1586 7.79824 15.7398 9.47324 15.7398Z" fill="white"/>
</g>
</svg>
