<svg width="19" height="19" viewBox="0 0 19 19" fill="none" xmlns="http://www.w3.org/2000/svg">
<mask id="mask0_21_177" style="mask-type:alpha" maskUnits="userSpaceOnUse" x="0" y="0" width="19" height="19">
<rect x="0.472656" y="0.274658" width="18" height="18" fill="#D9D9D9"/>
</mask>
<g mask="url(#mask0_21_177)">
<path d="M10.6728 9.27476L8.3665 11.581L8.72275 11.956L11.404 9.27476L8.72275 6.59351L8.3665 6.96851L10.6728 9.27476ZM9.47594 15.7998C8.57382 15.7998 7.7255 15.6286 6.931 15.2862C6.1365 14.9438 5.44544 14.4791 4.85782 13.8921C4.27007 13.3051 3.80482 12.6149 3.46207 11.8216C3.11919 11.0281 2.94775 10.1802 2.94775 9.27794C2.94775 8.37582 3.11894 7.52751 3.46132 6.73301C3.80369 5.93851 4.26838 5.24744 4.85538 4.65982C5.44238 4.07207 6.13257 3.60682 6.92594 3.26407C7.71944 2.92119 8.56732 2.74976 9.46957 2.74976C10.3717 2.74976 11.22 2.92094 12.0145 3.26332C12.809 3.60569 13.5001 4.07038 14.0877 4.65738C14.6754 5.24438 15.1407 5.93457 15.4834 6.72794C15.8263 7.52144 15.9978 8.36932 15.9978 9.27157C15.9978 10.1737 15.8266 11.022 15.4842 11.8165C15.1418 12.611 14.6771 13.3021 14.0901 13.8897C13.5031 14.4774 12.8129 14.9427 12.0196 15.2854C11.2261 15.6283 10.3782 15.7998 9.47594 15.7998ZM9.47275 15.2748C11.1478 15.2748 12.5665 14.6935 13.729 13.531C14.8915 12.3685 15.4728 10.9498 15.4728 9.27476C15.4728 7.59976 14.8915 6.18101 13.729 5.01851C12.5665 3.85601 11.1478 3.27476 9.47275 3.27476C7.79775 3.27476 6.379 3.85601 5.2165 5.01851C4.054 6.18101 3.47275 7.59976 3.47275 9.27476C3.47275 10.9498 4.054 12.3685 5.2165 13.531C6.379 14.6935 7.79775 15.2748 9.47275 15.2748Z" fill="#3D3D3D"/>
</g>
</svg>
