<svg id="그룹_115" data-name="그룹 115" xmlns="http://www.w3.org/2000/svg" xmlns:xlink="http://www.w3.org/1999/xlink" width="52.603" height="56.332" viewBox="0 0 52.603 56.332">
  <defs>
    <clipPath id="clip-path">
      <rect id="사각형_91" data-name="사각형 91" width="52.603" height="56.331" fill="none"/>
    </clipPath>
  </defs>
  <g id="그룹_114" data-name="그룹 114" transform="translate(0 0)" clip-path="url(#clip-path)">
    <path id="패스_495" data-name="패스 495" d="M38.755,42.977c-2.666,1.068-4.945,2.685-5.881,5.469-.979,2.911-.323,6.159-1.173,9.11-.65,2.257-2.154,4.238-2.526,6.557-.572,3.571,1.9,7.219,5.272,8.537a11.465,11.465,0,0,0,10.327-1.473c2.01-1.346,3.693-3.215,5.917-4.165,2.36-1.008,5.075-.867,7.473-1.784A8.93,8.93,0,0,0,62.092,51.5c-1.75-2.31-4.505-3.629-7.252-4.554s-5.616-1.555-8.187-2.893a21.712,21.712,0,0,0-3.879-1.909,5.516,5.516,0,0,0-4.018.838" transform="translate(-12.39 -17.891)" fill="#e8aa8c"/>
    <path id="패스_496" data-name="패스 496" d="M1.5,51.252a7.445,7.445,0,0,0,.556,4.63A14.6,14.6,0,0,0,4.74,59.771a12.428,12.428,0,0,0,5.473,3.817A5.934,5.934,0,0,0,16.4,62.024a5.955,5.955,0,0,0,.3-6.412,12.684,12.684,0,0,0-4.857-4.642A12.52,12.52,0,0,0,7,49.054c-1.735-.218-3.794-.489-5.5,2.2" transform="translate(-0.572 -20.835)" fill="#e8aa8c"/>
    <path id="패스_497" data-name="패스 497" d="M16.132,13.169c-3,.292-4.735,3.112-5.083,5.433a12.682,12.682,0,0,0,1.217,6.84,16.374,16.374,0,0,0,2.8,4.516,9.871,9.871,0,0,0,4.41,2.89,5.064,5.064,0,0,0,3.454-.057c1.714-.753,2.577-2.694,2.925-4.533A14.746,14.746,0,0,0,23.834,17.72,10.863,10.863,0,0,0,20.6,14.352a7.205,7.205,0,0,0-4.467-1.183" transform="translate(-4.664 -5.598)" fill="#e8aa8c"/>
    <path id="패스_498" data-name="패스 498" d="M76.708,15.289a7.439,7.439,0,0,1,3.2,3.39,14.613,14.613,0,0,1,1.273,4.549,12.421,12.421,0,0,1-.568,6.648,5.935,5.935,0,0,1-5.16,3.753,5.955,5.955,0,0,1-5.12-3.872,12.68,12.68,0,0,1-.46-6.7A12.52,12.52,0,0,1,71.5,18.108c.942-1.473,2.053-3.228,5.207-2.818" transform="translate(-29.659 -6.485)" fill="#e8aa8c"/>
    <path id="패스_499" data-name="패스 499" d="M38.126,2.892c2.143-2.117,5.422-1.647,7.428-.43a12.68,12.68,0,0,1,4.478,5.312,16.382,16.382,0,0,1,1.677,5.043,9.864,9.864,0,0,1-.6,5.238,5.064,5.064,0,0,1-2.253,2.619c-1.676.835-3.719.257-5.355-.653a14.746,14.746,0,0,1-6.8-8.3,10.872,10.872,0,0,1-.518-4.64,7.2,7.2,0,0,1,1.949-4.191" transform="translate(-15.377 -0.608)" fill="#e8aa8c"/>
    <path id="패스_500" data-name="패스 500" d="M37.9,41.815a9.079,9.079,0,0,0-6.942,6.9,37.983,37.983,0,0,0-.516,5.205,14.058,14.058,0,0,1-1.4,5.021,14.938,14.938,0,0,0-1.709,4.92,8.32,8.32,0,0,0,1.021,4.712A9.755,9.755,0,0,0,36.387,73.6a14.085,14.085,0,0,0,9.56-3.439c1.639-1.306,3.209-2.77,5.282-3.336,1.906-.52,3.931-.41,5.827-.986a9.988,9.988,0,0,0,3.8-17.067c-3.221-2.883-7.566-3.646-11.534-4.983A22.8,22.8,0,0,1,46.2,42.518c-.956-.49-1.865-1.08-2.859-1.493-2.047-.852-3.8-.357-5.668.669-.838.46-.239,1.786.636,1.358a7.129,7.129,0,0,1,2.135-.735,4.227,4.227,0,0,1,2.5.59c1.572.772,3.01,1.737,4.645,2.39,3.141,1.253,6.572,1.815,9.539,3.5,2.756,1.561,4.838,4.088,4.9,7.374A7.988,7.988,0,0,1,57.4,63.484a24.325,24.325,0,0,1-4.855,1.277,13.817,13.817,0,0,0-4.668,1.852c-1.542,1.013-2.86,2.326-4.405,3.331a11.564,11.564,0,0,1-4.284,1.676,8.526,8.526,0,0,1-7.952-2.492,7.275,7.275,0,0,1-1.806-3.682,7.428,7.428,0,0,1,.791-4.2,22.819,22.819,0,0,0,1.885-4.927,38.149,38.149,0,0,0,.349-5.229,8.659,8.659,0,0,1,1.6-5.016,14.678,14.678,0,0,1,4.179-3.189c.5-.307.341-1.225-.335-1.071" transform="translate(-11.625 -17.286)" fill="#2e324d"/>
    <path id="패스_501" data-name="패스 501" d="M.522,50.239a6.216,6.216,0,0,0,.171,5.284,15.889,15.889,0,0,0,3.519,4.85c2.524,2.531,6,4.49,9.65,3.294,3.367-1.1,4.689-4.707,3.685-7.941-1.112-3.585-4.63-6.028-7.9-7.513-3.134-1.424-7.868-1.81-9.4,2.06a.73.73,0,0,0,1.153.8c.935-.924,1.7-1.753,3.074-1.864a8.764,8.764,0,0,1,3.379.5,16.354,16.354,0,0,1,3.978,2.118,10.713,10.713,0,0,1,3.247,3.244c1.233,2.112,1.291,5.266-1.118,6.569-2.746,1.486-5.837-.057-7.914-1.96a16.32,16.32,0,0,1-3.442-4.238,12.242,12.242,0,0,1-1.187-5.006.5.5,0,0,0-.9-.2" transform="translate(0 -20.104)" fill="#2e324d"/>
    <path id="패스_502" data-name="패스 502" d="M15.529,12.1c-1.954-.275-3.747,1.11-4.764,2.675a8.641,8.641,0,0,0-1.319,5.291,16.271,16.271,0,0,0,1.735,6,15.254,15.254,0,0,0,3.827,5.128c2.863,2.406,7.624,3.519,9.928-.212,2.072-3.356,1.713-8.1.347-11.639-1.566-4.059-5.256-7.918-9.928-7.492-1,.091-.7,1.552.258,1.508,3.511-.164,6.106,2.625,7.532,5.543a13.494,13.494,0,0,1,.989,9.447c-.435,1.481-1.3,3.008-2.96,3.268a6.312,6.312,0,0,1-4.335-1.287,14.553,14.553,0,0,1-5.38-8.694,8.306,8.306,0,0,1,.327-5.261A6.531,6.531,0,0,1,15.7,13.062a.51.51,0,0,0-.169-.963" transform="translate(-4.015 -5.032)" fill="#2e324d"/>
    <path id="패스_503" data-name="패스 503" d="M75.57,14.963A12.5,12.5,0,0,1,78.356,18.4a15.037,15.037,0,0,1,1.256,4.844c.318,2.818.046,6.119-2.424,7.945-2.267,1.677-5,.566-6.315-1.718-1.487-2.578-1.1-6.154-.344-8.909a10.269,10.269,0,0,1,1.894-3.757c.976-1.206,2.19-1.31,3.647-1.452a.73.73,0,0,0,.125-1.4c-3.411-1.121-5.949,1.671-7.138,4.541a17.877,17.877,0,0,0-1.16,5.579,11.705,11.705,0,0,0,.855,5.658c1.374,2.993,4.714,5.024,7.966,3.791,3.5-1.326,4.867-5.2,4.782-8.655a18.41,18.41,0,0,0-1.247-6.542c-.76-1.835-2.213-3.777-4.259-4.185a.5.5,0,0,0-.423.817" transform="translate(-28.899 -5.837)" fill="#2e324d"/>
    <path id="패스_504" data-name="패스 504" d="M37.739,2.742a6.668,6.668,0,0,1,4.559-1,7.3,7.3,0,0,1,3.862,2.2,15.269,15.269,0,0,1,4.159,9.427,7.838,7.838,0,0,1-1.156,4.676,3.423,3.423,0,0,1-3.9,1.369c-3.041-.769-5.714-3.382-7.213-6.05-1.77-3.149-2.721-7.56-.03-10.5.646-.707-.284-1.872-.994-1.163-2.979,2.978-2.795,7.631-1.18,11.255a14.883,14.883,0,0,0,8.33,8.007,5.585,5.585,0,0,0,5.294-.617,7.713,7.713,0,0,0,2.539-5.013c.61-4.153-1.3-8.8-3.96-11.939A9.224,9.224,0,0,0,42.686.12C40.713-.244,38.237.172,37.106,2c-.248.4.164,1,.633.746" transform="translate(-14.775 0)" fill="#2e324d"/>
  </g>
</svg>
