<svg id="그룹_117" data-name="그룹 117" xmlns="http://www.w3.org/2000/svg" xmlns:xlink="http://www.w3.org/1999/xlink" width="55.855" height="50.31" viewBox="0 0 55.855 50.31">
  <defs>
    <clipPath id="clip-path">
      <rect id="사각형_92" data-name="사각형 92" width="55.855" height="50.31" fill="none"/>
    </clipPath>
  </defs>
  <g id="그룹_116" data-name="그룹 116" clip-path="url(#clip-path)">
    <path id="패스_505" data-name="패스 505" d="M55.2,35.186s-6.733,17.474-38.585,16C-4.836,27.619,4.3,11.273,4.3,11.273c5.73-13.441,26.821-11.026,29.66,3,12.612-6.756,27.934,7.9,21.246,20.912" transform="translate(-1.661 -1.666)" fill="#eaac8e"/>
    <path id="패스_506" data-name="패스 506" d="M14.657,50.156a.708.708,0,0,1-.222-.163C3.214,37.667.417,27.3.048,20.765-.343,13.876,1.759,9.751,2,9.3,4.72,2.96,11.208-.651,18.54.1,25.619.82,31.112,5.286,32.779,11.58c5.916-2.732,12.865-1.354,17.939,3.635,5.247,5.159,6.606,12.454,3.466,18.6-.192.476-2.022,4.729-7.572,8.828-5.26,3.885-15.028,8.355-31.688,7.583a.7.7,0,0,1-.267-.066M23.785,2.968A16.611,16.611,0,0,0,18.4,1.5C11.68.814,5.748,4.105,3.285,9.883c-.01.023-.021.046-.033.067-.021.039-2.2,4.061-1.79,10.841.376,6.243,3.085,16.161,13.82,28.036,16,.685,25.365-3.562,30.408-7.259,5.477-4.014,7.178-8.261,7.195-8.3.009-.022.019-.046.03-.067,2.872-5.587,1.622-12.251-3.185-16.977a15.532,15.532,0,0,0-10.572-4.606,13.232,13.232,0,0,0-6.529,1.616.7.7,0,0,1-.633.017h0a.7.7,0,0,1-.391-.5,13.773,13.773,0,0,0-7.82-9.78" transform="translate(0 0)" fill="#2e324d"/>
  </g>
</svg>
