<svg xmlns="http://www.w3.org/2000/svg" width="56.104" height="63.371" viewBox="0 0 56.104 63.371">
  <g id="그룹_111" data-name="그룹 111" transform="translate(0 0)">
    <g id="그룹_94" data-name="그룹 94" transform="translate(2.177 0)">
      <path id="패스_348" data-name="패스 348" d="M67.39,56.79l3.261,2.254,3.031,1.291,1.435,3.519,3.829.179,1.9,1.71,3.035-1.108,3.1-1.878.054-2.951-.077-3.093-1.732-2.988,2.336-3.242L84.894,47.03l3.827,1.876,1.426,2.82,2.818.985,1.116,2.736,2.926,1.31L96.8,60.229l3.227,1.325,1.891,2.616,4.145-.712.71,3.941,1.568,2.476,3.177,1.446.574,3.1.77,2.885.131,2.975.577,3.018.906,3.3-1.091,2.986-1.506,2.773-2.276,2.2-1.551,2.676-2.355,1.975-2.622,1.557-2.592,1.56L97.493,103,94.6,103.7l-3.059,1.9-3.485-.191L85.3,102.82l-4.089.882-1.151-4.008-2.11-2.106-3.939-.947-1.413-2.969.925-3.739L73.1,87.015,72.4,84.128l-2.1-3.141,1.25-3.048,2.4-3.184L70.294,72.4l.151-3.154L71.35,65.9l-1.7-2.657-.293-3.061Z" transform="translate(-66.637 -46.28)" fill="#fff"/>
      <path id="패스_349" data-name="패스 349" d="M88.8,103.619h-.041l-3.485-.191a.75.75,0,0,1-.473-.2l-2.476-2.319-3.7.8a.754.754,0,0,1-.882-.527l-1.1-3.82-1.822-1.82-3.732-.9a.748.748,0,0,1-.5-.409l-1.413-2.966a.758.758,0,0,1-.052-.506l.891-3.6-.4-2.741L68.957,81.7l-2.029-3.029a.752.752,0,0,1-.071-.7l1.25-3.05a.716.716,0,0,1,.095-.168l1.91-2.536L67.137,70.3a.753.753,0,0,1-.344-.669l.151-3.151a.665.665,0,0,1,.026-.159l.817-3.033-1.521-2.377a.774.774,0,0,1-.116-.333l-.278-2.9L63.99,54.433a.753.753,0,0,1,1.08-1l3.2,2.211,2.962,1.261a.749.749,0,0,1,.4.409l1.252,3.074,3.349.157a.745.745,0,0,1,.469.194l1.564,1.407,2.54-.927L83.483,59.6l.045-2.521-.071-2.885-1.635-2.822a.752.752,0,0,1,.041-.817l2.007-2.786L81.55,44.757a.753.753,0,0,1,.927-1.136L86.3,45.5a.744.744,0,0,1,.34.336l1.291,2.549,2.532.884a.751.751,0,0,1,.45.426l1,2.459,2.65,1.187a.752.752,0,0,1,.443.734l-.179,2.934,2.728,1.121a.753.753,0,0,1,.323.256L99.5,60.618l3.685-.632a.754.754,0,0,1,.869.609l.684,3.795,1.368,2.162,2.973,1.353a.75.75,0,0,1,.428.549l.568,3.07.764,2.857a.838.838,0,0,1,.026.161l.129,2.919.559,2.936.9,3.272a.758.758,0,0,1-.019.458l-1.091,2.986a.852.852,0,0,1-.045.1l-1.506,2.773a.758.758,0,0,1-.138.181l-2.2,2.13-1.5,2.588a.749.749,0,0,1-.168.2l-2.355,1.973a.824.824,0,0,1-.1.071l-2.622,1.557-2.588,1.557a.776.776,0,0,1-.224.09L94.91,101l-2.758.675L89.2,103.507a.77.77,0,0,1-.4.114Zm-3.171-1.68,2.975.163,2.857-1.773a.807.807,0,0,1,.217-.093l2.889-.708,2.883-.643,2.487-1.5,2.575-1.529,2.207-1.848L106.2,91.45a.724.724,0,0,1,.127-.163l2.192-2.123,1.424-2.624.99-2.708-.843-3.068a.565.565,0,0,1-.013-.058l-.574-3.02a.919.919,0,0,1-.013-.108l-.127-2.893-.749-2.805-.013-.058-.5-2.713-2.82-1.284a.764.764,0,0,1-.325-.282l-1.568-2.476a.764.764,0,0,1-.105-.269l-.579-3.205-3.412.585a.753.753,0,0,1-.738-.3l-1.766-2.442-3.029-1.246a.755.755,0,0,1-.465-.742l.179-2.951-2.45-1.1a.757.757,0,0,1-.389-.4l-.987-2.424-2.5-.871a.756.756,0,0,1-.424-.37l-1.312-2.594-.7-.342.691.893a.752.752,0,0,1,.015.9l-2.05,2.846L84.856,53.6a.753.753,0,0,1,.1.359l.075,3.091v.032l-.052,2.951a.754.754,0,0,1-.361.63l-3.1,1.878a.611.611,0,0,1-.131.062l-3.035,1.11a.753.753,0,0,1-.761-.148l-1.7-1.529-3.562-.166a.754.754,0,0,1-.663-.467l-1.316-3.231L67.608,57a.8.8,0,0,1-.133-.073l-.493-.34.278.48a.774.774,0,0,1,.1.305l.275,2.88,1.6,2.5a.752.752,0,0,1,.092.6l-.884,3.276-.127,2.637,3.291,2.117a.753.753,0,0,1,.194,1.086l-2.34,3.106L68.4,78.171l1.88,2.807a.77.77,0,0,1,.108.243l.693,2.885a.652.652,0,0,1,.013.069l.422,2.921a.765.765,0,0,1-.015.288l-.86,3.476,1.142,2.4,3.588.863a.749.749,0,0,1,.357.2l2.11,2.106a.746.746,0,0,1,.191.325l.957,3.332,3.4-.734a.752.752,0,0,1,.673.187l2.564,2.4Z" transform="translate(-63.888 -43.545)" fill="#1d1d1d"/>
    </g>
    <g id="그룹_95" data-name="그룹 95" transform="translate(23.972 35.563)">
      <path id="패스_350" data-name="패스 350" d="M175.464,210.868s-5.855-.153-7.914,4.339c0,0,2.605,3.158,5.8,1.248S175.464,210.868,175.464,210.868Z" transform="translate(-167.047 -210.437)" fill="#1d1d1d"/>
      <path id="패스_351" data-name="패스 351" d="M169.422,215.927a5.914,5.914,0,0,1-4.04-2.016l-.172-.209.112-.245c2.151-4.7,8.067-4.595,8.316-4.591l.314.009.088.3c.011.041,1.125,4.02-2.31,6.077A4.445,4.445,0,0,1,169.422,215.927Zm-3.194-2.364c.609.626,2.65,2.4,5.059.953a4.486,4.486,0,0,0,1.994-4.782C172.079,209.788,167.948,210.216,166.227,213.563Z" transform="translate(-165.21 -208.866)" fill="#1d1d1d"/>
    </g>
    <path id="패스_352" data-name="패스 352" d="M157.829,217.776c-1.512,0-3.405-1.017-5.649-3.037a.43.43,0,1,1,.576-.639c2.607,2.349,4.672,3.253,5.976,2.618,1.977-.964,2.121-5.343,2.009-6.948a.432.432,0,0,1,.191-.389.427.427,0,0,1,.432-.024c.056.028,5.533,2.8,7.942.839,1.362-1.108,1.529-3.577.5-7.342a.431.431,0,1,1,.83-.228c1.129,4.124.865,6.9-.787,8.237-2.317,1.882-6.591.288-8.226-.435.022,1.708-.172,5.922-2.517,7.064a2.894,2.894,0,0,1-1.28.286Z" transform="translate(-130.899 -168.157)" fill="#1d1d1d"/>
    <ellipse id="타원_62" data-name="타원 62" cx="1.086" cy="1.086" rx="1.086" ry="1.086" transform="translate(30.841 28.973)" fill="#1d1d1d"/>
    <ellipse id="타원_63" data-name="타원 63" cx="1.086" cy="1.086" rx="1.086" ry="1.086" transform="translate(17.988 35.845)" fill="#1d1d1d"/>
    <path id="패스_353" data-name="패스 353" d="M248.95,119.863l-.83-.226.8-2.964.626-2.951,1.454-2.68,1.635-2.667,2.577-1.794.49.706-2.429,1.691-1.534,2.5-1.377,2.543-.609,2.865Z" transform="translate(-206.313 -93.02)" fill="#1d1d1d"/>
    <path id="패스_354" data-name="패스 354" d="M254.379,167.388l-.359-.783,3.029-1.392,3.1-1.377,3.315-.667,3.272,1.037-.26.82-3.059-.968-3.05.613L257.4,166Z" transform="translate(-210.944 -137.437)" fill="#1d1d1d"/>
    <path id="패스_355" data-name="패스 355" d="M268.277,199.486l-.447-.734,3.044-1.85,3.745-.342,3.268,1.813-.417.753-3.035-1.684-3.285.3Z" transform="translate(-221.783 -163.644)" fill="#1d1d1d"/>
    <path id="패스_356" data-name="패스 356" d="M53.983,255.019l-.213-.832,2.917-.742,2.878-.49,2.945-.364,2.956.041-.013.86-2.9-.039-2.867.353-2.842.484Z" transform="translate(-53.77 -207.622)" fill="#1d1d1d"/>
    <path id="패스_357" data-name="패스 357" d="M91.347,275.968l-.757-.409,1.542-2.865,2.954-1.687,3.222-.768.2.837-3.1.74-2.633,1.5Z" transform="translate(-82.67 -221.475)" fill="#1d1d1d"/>
    <path id="패스_358" data-name="패스 358" d="M113.578,298.307l-1.088-3.861.256-2.9,1.96-2.272,2.048-1.884.583.632-2.029,1.869-1.727,2-.219,2.467,1.045,3.711Z" transform="translate(-99.859 -234.936)" fill="#1d1d1d"/>
  </g>
</svg>
