<svg id="그룹_113" data-name="그룹 113" xmlns="http://www.w3.org/2000/svg" xmlns:xlink="http://www.w3.org/1999/xlink" width="57.831" height="48.606" viewBox="0 0 57.831 48.606">
  <defs>
    <clipPath id="clip-path">
      <rect id="사각형_90" data-name="사각형 90" width="57.831" height="48.606" fill="none"/>
    </clipPath>
  </defs>
  <g id="그룹_112" data-name="그룹 112" clip-path="url(#clip-path)">
    <path id="패스_470" data-name="패스 470" d="M100.716,209.588a3.038,3.038,0,0,1-.638,2.476,3.18,3.18,0,0,1-1.711.654,41.72,41.72,0,0,1-7.386.537,6.809,6.809,0,0,1-3.074-.571,5,5,0,0,1-2.376-3.69,14.367,14.367,0,0,1,.184-4.386,1.441,1.441,0,0,1,.677-.328,4.138,4.138,0,0,1,1.255.01,25.316,25.316,0,0,0,8.625-.6,3.574,3.574,0,0,1,2.212-.1,3.067,3.067,0,0,1,1.471,2.046,16.776,16.776,0,0,1,.761,3.954" transform="translate(-73.248 -174.441)" fill="#eaac8e"/>
    <path id="패스_471" data-name="패스 471" d="M84.91,186.563c-.088-.168-.181-.338-.283-.5a3.178,3.178,0,0,0-1.81-1.558,4.373,4.373,0,0,0-2.146.208,34.1,34.1,0,0,1-11.256.981c-.124-.009-.252-.019-.377-.03l-.949.281a2.979,2.979,0,0,0-.655.933,6.326,6.326,0,0,0-.445,2.534,20.314,20.314,0,0,0,.754,5.679,9.153,9.153,0,0,0,.347,1.036,3.739,3.739,0,0,0,1.2,1.656,4.805,4.805,0,0,0,2.25.731,41.13,41.13,0,0,0,10.185-.358,18.933,18.933,0,0,0,4.369-.894,2.133,2.133,0,0,0,1.336-1.047,1.638,1.638,0,0,0,.086-.779,5.173,5.173,0,0,0-.093-.576,30.967,30.967,0,0,0-2.511-8.3m0,6.724a3.038,3.038,0,0,1-.638,2.476,3.18,3.18,0,0,1-1.711.654,41.72,41.72,0,0,1-7.386.537,6.81,6.81,0,0,1-3.074-.571,5,5,0,0,1-2.376-3.69,14.367,14.367,0,0,1,.184-4.386,1.047,1.047,0,0,0-.143.153l-.138.247a.883.883,0,0,1,.138-.247l.165-.294-.022.141a1.441,1.441,0,0,1,.677-.328,4.138,4.138,0,0,1,1.255.01,25.316,25.316,0,0,0,8.625-.6,3.574,3.574,0,0,1,2.212-.1,3.067,3.067,0,0,1,1.471,2.046,16.775,16.775,0,0,1,.761,3.954" transform="translate(-57.438 -158.141)" fill="#f0caa5"/>
    <path id="패스_472" data-name="패스 472" d="M58.6,16.12l-.259-.092a16.914,16.914,0,0,0-10.118-5.274,31.722,31.722,0,0,0-11.562.587A57.221,57.221,0,0,0,17.81,19.014a24.812,24.812,0,0,0-5.178,4.142,11.687,11.687,0,0,0-3,5.831l-.022.031a8.019,8.019,0,0,1-1.665-1.565,7.409,7.409,0,0,1-1.464-3.5A8.182,8.182,0,0,1,6.487,21.5a8.741,8.741,0,0,1,2.742-5.072,47.916,47.916,0,0,1,5.526-4.505A55.188,55.188,0,0,1,50.386,3.712,11.485,11.485,0,0,1,58.04,8.055a6.011,6.011,0,0,1,.79,1.335s0,0,0,0A8.512,8.512,0,0,1,58.6,16.12" transform="translate(-5.479 -2.864)" fill="#e19779"/>
    <path id="패스_473" data-name="패스 473" d="M11.942,143.046a20.309,20.309,0,0,0,.754,5.679,9.183,9.183,0,0,0,.347,1.036l-.056.023A9.583,9.583,0,0,1,6.5,145.935a17.97,17.97,0,0,1-3.063-7.063,20.606,20.606,0,0,1-.347-8.512l.31.048a8.187,8.187,0,0,0-.007,2.458,7.41,7.41,0,0,0,1.464,3.5A8.022,8.022,0,0,0,6.52,137.93a19.8,19.8,0,0,0,5.526,2.407l.341.174a6.328,6.328,0,0,0-.445,2.534" transform="translate(-2.391 -111.777)" fill="#eaac8e"/>
    <path id="패스_474" data-name="패스 474" d="M220.581,53.491a13.223,13.223,0,0,1-.757,8.745,14.544,14.544,0,0,1-4.139,4.911,43.5,43.5,0,0,1-5.436,3.506l-.164-.006a3.683,3.683,0,0,0-2.736-3.612,4.227,4.227,0,0,0-4.434,1.854,5.013,5.013,0,0,0-.145,4.9l-.056.06c-.241.1-.485.191-.727.281a55.018,55.018,0,0,1-8.379,2.443,5.207,5.207,0,0,0-.093-.576A30.967,30.967,0,0,0,191,67.7c-.088-.168-.181-.338-.283-.5l.439-.183c6.295-2.01,12.63-4.1,18.317-7.465,2.68-1.589,5.278-3.538,6.8-6.259.138-.247.264-.5.379-.758a8.512,8.512,0,0,0,.228-6.725,22.047,22.047,0,0,1,3.7,7.681" transform="translate(-163.531 -39.279)" fill="#eaac8e"/>
    <path id="패스_475" data-name="패스 475" d="M287.746,204.529a7.86,7.86,0,1,1-14.2-2.2,2.252,2.252,0,0,1-.5-.965,3.334,3.334,0,0,1-.125-.769,11.982,11.982,0,0,1-2.276.343l-.895.214c.242-.09.486-.186.727-.281l.056-.06a5.012,5.012,0,0,1,.145-4.9,4.226,4.226,0,0,1,4.434-1.854,3.683,3.683,0,0,1,2.736,3.612c0,.025,0,.051-.007.077.378.19.471.636.529,1.091,0,.027.007.055.013.084a7.859,7.859,0,0,1,9.365,5.607" transform="translate(-231.292 -166.302)" fill="#f0caa5"/>
    <path id="패스_476" data-name="패스 476" d="M320.9,249.96a9.883,9.883,0,0,1-.318,5.016.512.512,0,0,1-.66.448,21.815,21.815,0,0,1-3.56-.7,4.123,4.123,0,0,1-2.157-1.17,2.25,2.25,0,0,1,2.676-3.469l.39-.08a4.853,4.853,0,0,1,.514-1.383,1.642,1.642,0,0,1,1.174-.816,1.59,1.59,0,0,1,1.366.681,3.562,3.562,0,0,1,.574,1.471" transform="translate(-268.996 -212.475)" fill="#eaac8e"/>
    <path id="패스_477" data-name="패스 477" d="M66.083,183.681a30.546,30.546,0,0,0,11.45-.629,5.743,5.743,0,0,1,2.669-.36,3.079,3.079,0,0,1,1.6,1.529,19.858,19.858,0,0,1,1.984,5.509c.23.976.435,1.957.634,2.94a2.057,2.057,0,0,1,.039,1.245,1.538,1.538,0,0,1-.817.65,19.645,19.645,0,0,1-5.722,1.114,49.555,49.555,0,0,1-5.745.4,25.621,25.621,0,0,1-2.866-.157,4.377,4.377,0,0,1-2.4-.781,4.694,4.694,0,0,1-1.252-2.329,19.278,19.278,0,0,1-.658-3.354,16.261,16.261,0,0,1-.082-3.011,3.836,3.836,0,0,1,.928-2.4.377.377,0,0,0-.537-.529c-1.318,1.211-1.3,3.259-1.226,4.908a16.625,16.625,0,0,0,1.207,6.008,3.711,3.711,0,0,0,1.8,1.9,8.5,8.5,0,0,0,2.795.577,34.091,34.091,0,0,0,6.318-.113c1.054-.1,2.106-.226,3.157-.355a25.815,25.815,0,0,0,3.21-.533,4.807,4.807,0,0,0,2.462-1.16c.666-.756.425-1.722.243-2.613a35.36,35.36,0,0,0-1.759-6.353c-.633-1.548-1.482-3.572-3.36-3.839a9.3,9.3,0,0,0-3.215.553c-1.157.26-2.328.458-3.5.6a43,43,0,0,1-7.28.137c-.254-.012-.32.41-.061.449" transform="translate(-54.918 -155.976)" fill="#2e324d"/>
    <path id="패스_478" data-name="패스 478" d="M94.75,199.429a15.484,15.484,0,0,0-2.351.462c-.821.169-1.649.293-2.482.387a28.443,28.443,0,0,1-4.789.137,5.588,5.588,0,0,0-2.245.015,1.5,1.5,0,0,0-.894,1.454,17.373,17.373,0,0,0,.58,4.709,10.072,10.072,0,0,0,.7,2.235,1.966,1.966,0,0,0,1.55,1.019,32.856,32.856,0,0,0,4.731.379,27.055,27.055,0,0,0,4.772-.334,19.734,19.734,0,0,0,2.3-.509,2.915,2.915,0,0,0,1.576-.912,2.831,2.831,0,0,0,.242-2.167,23.871,23.871,0,0,0-.522-2.762A17.639,17.639,0,0,0,97.109,201a3.056,3.056,0,0,0-1.31-1.6c-.456-.243-.857.452-.4.7a2.4,2.4,0,0,1,1.02,1.324,18.068,18.068,0,0,1,.63,1.971q.283,1.052.468,2.127c.066.384.122.77.167,1.157a3.183,3.183,0,0,1,.036.95c-.112.568-.706.8-1.2.955a17.977,17.977,0,0,1-2.053.481,24.833,24.833,0,0,1-4.264.373,36.323,36.323,0,0,1-4.186-.23c-.563-.061-1.442-.029-1.865-.472a4.343,4.343,0,0,1-.685-1.838A20.78,20.78,0,0,1,82.8,202.5c-.025-.588-.1-1.322.666-1.386a16.38,16.38,0,0,1,2.019.121,26.8,26.8,0,0,0,4.749-.206q1.188-.16,2.359-.42a7.59,7.59,0,0,0,2.278-.732.245.245,0,0,0-.122-.453" transform="translate(-70.291 -170.927)" fill="#2e324d"/>
    <path id="패스_479" data-name="패스 479" d="M135.966,226.442a1.38,1.38,0,0,0-.207.346,1.162,1.162,0,0,0-.053.442,1.3,1.3,0,0,0,.378.833,1.547,1.547,0,0,0,1.772.247,1.737,1.737,0,0,0,.922-1.541,1.7,1.7,0,0,0-1.039-1.546,1.175,1.175,0,0,0-1.6.874.325.325,0,0,0,.239.314.329.329,0,0,0,.365-.151c.011-.02.089-.134.041-.074a1.283,1.283,0,0,1,.1-.1c.024-.023.1-.077.035-.035a1.627,1.627,0,0,1,.154-.087c-.089.045.031-.008.059-.016s.151-.023.058-.017c.05,0,.1,0,.149,0,.069,0,0,0-.012,0,.029.006.058.012.087.02s.114.042.029.005l.058.028c.024.012.047.026.07.04s.078.054.011,0a1.1,1.1,0,0,1,.108.1c.019.02.037.04.055.06.057.061-.034-.056.016.021.03.046.059.092.085.141.01.02.019.04.029.059-.04-.073-.012-.032,0-.01a1.637,1.637,0,0,1,.048.157c0,.022.008.043.012.065-.018-.105,0,.015,0,.039,0,.106-.006.212-.011.317,0-.084.005-.031,0-.009s-.011.055-.017.082-.014.054-.023.08-.045.115-.007.027a1.41,1.41,0,0,1-.075.149c-.011.019-.023.038-.035.057,0,0-.066.086-.027.039s-.032.035-.032.035l-.046.048c-.02.019-.042.037-.061.056s-.017.015.019-.013l-.039.028a1.147,1.147,0,0,1-.124.073c-.019.009-.115.044-.018.01l-.06.021c-.051.017-.1.027-.155.039-.02,0-.075.006.01,0-.032,0-.064.006-.1.007-.054,0-.106,0-.159-.005.074,0,.027.005.006,0l-.078-.017c-.046-.012-.091-.027-.137-.038-.091-.023.035.024-.014,0l-.1-.055c-.013-.007-.056-.042,0,0-.024-.02-.048-.04-.07-.062s-.035-.039-.054-.057-.014-.015.009.014l-.036-.051c-.029-.043-.057-.088-.082-.133-.012-.023-.024-.046-.035-.07s-.009-.019.006.013a.375.375,0,0,0-.016-.044,1.282,1.282,0,0,1-.051-.163c0,.007-.016-.091-.011-.051,0,.021,0-.056,0-.068a.661.661,0,0,1,.024-.316.2.2,0,0,0-.115-.232.2.2,0,0,0-.246.082" transform="translate(-116.357 -193.049)" fill="#2e324d"/>
    <path id="패스_480" data-name="패스 480" d="M85.364,231.247a5.386,5.386,0,0,0,1.5.221,1.32,1.32,0,0,0,1.182-.949,2.743,2.743,0,0,0-.138-1.569,1.266,1.266,0,0,0-.361-.593,1.051,1.051,0,0,0-.769-.2l-1.94.094a.408.408,0,0,0-.4.4.4.4,0,0,0,.4.4l1.441-.082c.229-.013.46-.033.689-.036.044,0,.036-.007.076.011-.056-.025.04.034-.011-.007.015.012.07.079.036.032a.933.933,0,0,1,.077.134c.03.061,0-.013.02.052.012.038.025.076.037.114.03.1.057.205.083.308a1.881,1.881,0,0,1,.071.613.755.755,0,0,1-.137.368.674.674,0,0,1-.446.205,2.411,2.411,0,0,1-.653-.016,2.559,2.559,0,0,0-.756.006.26.26,0,0,0,0,.5" transform="translate(-72.401 -195.627)" fill="#2e324d"/>
    <path id="패스_481" data-name="패스 481" d="M30.552,28.061a101.4,101.4,0,0,0,12.223-4.247A37.763,37.763,0,0,0,53.1,17.775c2.656-2.369,4.554-5.727,4.08-9.383-.442-3.415-3.3-5.987-6.363-7.232a17.2,17.2,0,0,0-5.216-1A51.473,51.473,0,0,0,39.713.034a55.882,55.882,0,0,0-11.658,1.7,56.592,56.592,0,0,0-11.048,4.06,51.388,51.388,0,0,0-5.123,2.877A35.386,35.386,0,0,0,7.772,11.9a14.263,14.263,0,0,0-3.34,3.685,8.872,8.872,0,0,0-1.115,4.7,7.981,7.981,0,0,0,2.191,5.2,12.071,12.071,0,0,0,4.436,2.666c.8.306,1.617.568,2.434.825.527.166.749-.661.224-.827-3.227-1.022-6.884-2.315-8.037-5.859a7.845,7.845,0,0,1,.018-4.858,8.976,8.976,0,0,1,2.644-3.858c1.267-1.15,2.558-2.286,3.928-3.312a35.477,35.477,0,0,1,4.435-2.737A54.679,54.679,0,0,1,25.916,3.26,53.841,53.841,0,0,1,36.923,1.147a47.964,47.964,0,0,1,11.047.211A11.145,11.145,0,0,1,52.41,3.066a9.219,9.219,0,0,1,3.253,3.458c1.5,3.069.255,6.744-1.854,9.178-2.433,2.809-5.9,4.677-9.206,6.265A104.132,104.132,0,0,1,33.2,26.416c-.943.323-1.879.665-2.818,1-.4.142-.245.769.175.648" transform="translate(-2.836 0)" fill="#2e324d"/>
    <path id="패스_482" data-name="패스 482" d="M.483,129.021c-.1.41-.255.79-.32,1.214s-.1.852-.133,1.279a17.268,17.268,0,0,0,.046,2.6,26.308,26.308,0,0,0,.94,5.1,14.611,14.611,0,0,0,5.062,7.962,7.8,7.8,0,0,0,4.515,1.711.381.381,0,0,0,.1-.746,17.078,17.078,0,0,1-1.974-.506,8.725,8.725,0,0,1-1.775-.907,10.625,10.625,0,0,1-2.961-2.974,21.113,21.113,0,0,1-3.053-9.212,21.63,21.63,0,0,1-.137-2.668c0-.468.019-.933.053-1.4s.012-.935.071-1.389c.033-.251-.375-.3-.435-.059" transform="translate(0 -110.494)" fill="#2e324d"/>
    <path id="패스_483" data-name="패스 483" d="M331.536,42.508c.452.956,1.107,1.808,1.626,2.73a22.292,22.292,0,0,1,1.339,2.768,15.942,15.942,0,0,1,1.164,5.675,11.74,11.74,0,0,1-1.174,5.368A13.754,13.754,0,0,1,331.01,63.3,39.759,39.759,0,0,1,325.1,67.2a.4.4,0,0,0,.408.692c3.571-2.052,7.339-4.284,9.408-8a13.955,13.955,0,0,0,.552-11.4,21.1,21.1,0,0,0-1.478-3.234,12.2,12.2,0,0,0-2.116-3.009.218.218,0,0,0-.338.264" transform="translate(-278.588 -36.168)" fill="#2e324d"/>
    <path id="패스_484" data-name="패스 484" d="M209.214,243.05a7.755,7.755,0,0,0,2.321-.369c.791-.185,1.574-.4,2.354-.626,1.557-.459,3.1-.985,4.6-1.586.45-.179.26-.917-.2-.737-1.513.592-3.044,1.133-4.6,1.6-.778.233-1.56.45-2.345.658a10.185,10.185,0,0,0-2.239.673.211.211,0,0,0,.105.389" transform="translate(-179.209 -205.532)" fill="#2e324d"/>
    <path id="패스_485" data-name="패스 485" d="M27.925,69.1a15.493,15.493,0,0,1,2.2-4.507A18.4,18.4,0,0,1,34.109,60.8a52.154,52.154,0,0,1,10.2-5.657A56.446,56.446,0,0,1,55.477,51.7a29.814,29.814,0,0,1,11.176-.378,16.731,16.731,0,0,1,9.457,5.058c.372.412.955-.195.6-.61A16.481,16.481,0,0,0,68.2,50.737a27.841,27.841,0,0,0-11.349-.206,56.051,56.051,0,0,0-22.444,8.963,20.23,20.23,0,0,0-4.747,4.269,9.321,9.321,0,0,0-2.2,5.274.237.237,0,0,0,.464.063" transform="translate(-23.547 -42.914)" fill="#2e324d"/>
    <path id="패스_486" data-name="패스 486" d="M274.873,223.953a8.01,8.01,0,0,0,3.992-.7,12.645,12.645,0,0,0,3.551-2.1c.344-.285-.153-.773-.5-.488a12.424,12.424,0,0,1-5.188,2.543c-.62.139-1.252.2-1.86.379-.165.05-.193.328,0,.362" transform="translate(-235.572 -189.136)" fill="#2e324d"/>
    <path id="패스_487" data-name="패스 487" d="M269.519,198.155c-.012-.6-.3-1.18-.355-1.78a5.028,5.028,0,0,1,.131-1.736,3.909,3.909,0,0,1,2.295-2.628,3.318,3.318,0,0,1,3.249.335,3.432,3.432,0,0,1,1.371,2.879c-.014.411.65.517.727.1a3.976,3.976,0,0,0-3.575-4.45,4.743,4.743,0,0,0-4.958,3.764,5.346,5.346,0,0,0-.039,1.959,2.823,2.823,0,0,0,.753,1.725.24.24,0,0,0,.4-.167" transform="translate(-230.044 -163.643)" fill="#2e324d"/>
    <path id="패스_488" data-name="패스 488" d="M280.561,203.805a4.548,4.548,0,0,0-.808,2.412,4.844,4.844,0,0,0,.441,2.523.281.281,0,0,0,.511-.215,9.419,9.419,0,0,1-.314-1.1,5.009,5.009,0,0,1-.06-1.17,6.572,6.572,0,0,1,.606-2.234.217.217,0,0,0-.376-.216" transform="translate(-239.859 -174.664)" fill="#2e324d"/>
    <path id="패스_489" data-name="패스 489" d="M294.862,240.481a8.327,8.327,0,1,1,5.867-10.211,8.336,8.336,0,0,1-5.867,10.211m-4.1-15.176a7.393,7.393,0,1,0,9.065,5.209,7.4,7.4,0,0,0-9.065-5.209" transform="translate(-243.823 -192.164)" fill="#2e324d"/>
    <path id="패스_490" data-name="패스 490" d="M297.481,247.32a4.627,4.627,0,0,0-1.745,2.455,6.751,6.751,0,0,0-.385,3.156,6.871,6.871,0,0,0,3.208,5.008,5.929,5.929,0,0,0,3.293.995c.368-.014.493-.61.092-.674a7.609,7.609,0,0,1-3.214-1.176,6.1,6.1,0,0,1-2.19-2.7,6.172,6.172,0,0,1-.287-3.513,6.783,6.783,0,0,1,.578-1.7c.276-.546.679-1.006.959-1.546a.226.226,0,0,0-.308-.3" transform="translate(-253.207 -212.037)" fill="#2e324d"/>
    <path id="패스_491" data-name="패스 491" d="M361.228,253.325a6.3,6.3,0,0,0,4.187-5.178,6.727,6.727,0,0,0-2.929-6.437c-.353-.209-.784.317-.447.588a7.016,7.016,0,0,1,2.121,2.558,5.838,5.838,0,0,1,.49,3.174,6.818,6.818,0,0,1-3.574,4.935.2.2,0,0,0,.152.36" transform="translate(-309.521 -207.211)" fill="#2e324d"/>
    <path id="패스_492" data-name="패스 492" d="M314.476,247.238a2.316,2.316,0,0,0-2.417.008,2.58,2.58,0,0,0-1.3,1.91,2.726,2.726,0,0,0,.7,2.265,4.975,4.975,0,0,0,2.361,1.186,22.414,22.414,0,0,0,2.982.6c.439.059.965.2,1.326-.149a2.743,2.743,0,0,0,.528-1.319,10.065,10.065,0,0,0,.285-2.9,7.109,7.109,0,0,0-.605-2.812,2.032,2.032,0,0,0-2.291-1.166,2.868,2.868,0,0,0-1.691,2.467.368.368,0,0,0,.709.192c.207-.615.4-1.433,1.029-1.761a1.17,1.17,0,0,1,1.514.7,5.405,5.405,0,0,1,.467,2.177,9.406,9.406,0,0,1-.352,3.262,1.363,1.363,0,0,1-.155.476c-.106.108-.419.014-.553,0a21.136,21.136,0,0,1-2.293-.427c-1.18-.285-2.844-.633-3.106-2.045a1.816,1.816,0,0,1,.605-1.737,2.459,2.459,0,0,1,2.015-.347.32.32,0,0,0,.242-.584" transform="translate(-266.429 -209.901)" fill="#2e324d"/>
    <path id="패스_493" data-name="패스 493" d="M289.719,240.847c-.02.057.021-.037,0,.013-.01.02-.019.039-.027.06a.516.516,0,0,0-.032.117.934.934,0,0,0-.018.235,1.386,1.386,0,0,0,.78,1.151.36.36,0,1,0,.274-.66c-.013,0-.067-.026-.01,0s0,0-.009-.005q-.037-.018-.073-.039c-.024-.014-.047-.029-.07-.045-.048-.032.051.042.019.015l-.029-.024a1.113,1.113,0,0,1-.125-.124c-.008-.01-.044-.054-.009-.009s.005.006,0,0q-.027-.038-.051-.078c-.029-.047-.055-.1-.079-.147a.349.349,0,0,0-.019-.041c.007.01.026.066.011.025s-.021-.058-.029-.088c-.015-.053-.031-.105-.042-.159-.006-.029-.009-.059-.016-.088,0-.011-.006-.023-.01-.033-.015-.05,0,.044,0-.011a.219.219,0,0,0-.43-.058" transform="translate(-248.344 -206.375)" fill="#2e324d"/>
    <path id="패스_494" data-name="패스 494" d="M41.871,217.689a1.267,1.267,0,0,0-.283.2,1.143,1.143,0,0,0-.234.371,1.186,1.186,0,0,0,0,.779,1.448,1.448,0,0,0,1.219.96,1.527,1.527,0,0,0,1.416-.707,1.426,1.426,0,0,0,.2-.786,1.676,1.676,0,0,0-.2-.786,1.042,1.042,0,0,0-.718-.557,1.457,1.457,0,0,0-.887.246c-.238.121-.068.544.185.44a2.212,2.212,0,0,1,.258-.09.511.511,0,0,1,.215-.006.648.648,0,0,1,.064.017c-.038-.013.007,0,.014.007s.036.021.054.034c-.043-.03,0,0,.006.007s.094.1.052.047a1.256,1.256,0,0,1,.088.135,1.229,1.229,0,0,1,.06.116c-.032-.07.013.045.019.064.012.042.021.085.03.127,0,.017.006.07,0,0,0,.027,0,.054.006.081s0,.055,0,.082,0,.073,0,0a.916.916,0,0,1-.027.127c-.006.021-.012.042-.019.062s-.034.062,0,0c-.023.043-.045.086-.068.128s-.041.074-.065.11c-.008.012-.05.064-.015.022s-.01.01-.019.019a1.117,1.117,0,0,1-.09.09c-.01.009-.064.051-.019.018s-.026.016-.036.023c-.04.026-.084.046-.125.07s.071-.024.014,0l-.06.021a1.1,1.1,0,0,1-.123.032c-.015,0-.082.009-.024.005s-.028,0-.041,0a.316.316,0,0,1-.121,0c.041.025.057.011.015,0l-.059-.013a.331.331,0,0,1-.115-.036c.04.037.046.022.012,0s-.054-.027-.081-.042a.59.59,0,0,1-.1-.066c.074.066-.015-.017-.033-.035l-.042-.043c-.057-.056,0,.01.007.013-.034-.02-.065-.092-.083-.125,0-.006-.028-.053-.028-.054s.031.086,0,0a1.261,1.261,0,0,1-.034-.131c-.019-.084,0,.014,0,.014a.617.617,0,0,1,0-.091c0-.045,0-.09.006-.135s.006-.1.012-.147c0-.01.009-.07,0-.028s.008-.036.01-.044a.67.67,0,0,1,.085-.235c.131-.184-.125-.411-.3-.3" transform="translate(-35.401 -186.194)" fill="#2e324d"/>
  </g>
</svg>
