<svg id="그룹_119" data-name="그룹 119" xmlns="http://www.w3.org/2000/svg" xmlns:xlink="http://www.w3.org/1999/xlink" width="41.56" height="44.735" viewBox="0 0 41.56 44.735">
  <defs>
    <clipPath id="clip-path">
      <rect id="사각형_100" data-name="사각형 100" width="41.56" height="44.735" fill="none"/>
    </clipPath>
  </defs>
  <g id="그룹_118" data-name="그룹 118" transform="translate(0 0)" clip-path="url(#clip-path)">
    <path id="패스_507" data-name="패스 507" d="M27.048.5H25.691A16.673,16.673,0,0,0,9.067,17.124V35.6a6.645,6.645,0,0,0,6.626,6.626H36.1a7.6,7.6,0,0,0,7.573-7.573V17.124A16.673,16.673,0,0,0,27.048.5" transform="translate(-5.59 -0.308)" fill="#eaac8e"/>
    <path id="패스_508" data-name="패스 508" d="M27.048.5H25.691A16.673,16.673,0,0,0,9.067,17.124V35.6a6.645,6.645,0,0,0,6.626,6.626H36.1a7.6,7.6,0,0,0,7.573-7.573V17.124A16.673,16.673,0,0,0,27.048.5Z" transform="translate(-5.59 -0.308)" fill="none" stroke="#2e324d" stroke-miterlimit="10" stroke-width="1"/>
    <path id="패스_509" data-name="패스 509" d="M34.957,29.79A16.321,16.321,0,0,1,18.684,13.517V10.183A15.758,15.758,0,0,0,11.47,23.391V40.88a6.291,6.291,0,0,0,6.273,6.273h19.32a7.19,7.19,0,0,0,7.169-7.169V29.79Z" transform="translate(-7.071 -6.278)" fill="#e19779"/>
    <path id="패스_510" data-name="패스 510" d="M36.233,81.882H5.943A5.459,5.459,0,0,0,.5,87.325v2.256a5.459,5.459,0,0,0,5.443,5.443h30.29a5.459,5.459,0,0,0,5.443-5.443V87.325a5.459,5.459,0,0,0-5.443-5.443" transform="translate(-0.308 -50.48)" fill="#f0caa5"/>
    <rect id="사각형_93" data-name="사각형 93" width="41.176" height="13.141" rx="6.571" transform="translate(0.192 31.402)" fill="none" stroke="#2e324d" stroke-miterlimit="10" stroke-width="1"/>
    <path id="패스_511" data-name="패스 511" d="M58.377,7.047c-.875.153-.807,1.288-.223,1.7a47.828,47.828,0,0,1,4.65,3.281c1.614,1.456,2.39,3.365,4.431,4.3a1.807,1.807,0,0,0,2.679-1.537c.265-4.91-7.267-8.494-11.537-7.748" transform="translate(-35.582 -4.284)" fill="#ce4834"/>
    <path id="패스_512" data-name="패스 512" d="M58.377,7.047c-.875.153-.807,1.288-.223,1.7a47.828,47.828,0,0,1,4.65,3.281c1.614,1.456,2.39,3.365,4.431,4.3a1.807,1.807,0,0,0,2.679-1.537C70.178,9.885,62.646,6.3,58.377,7.047Z" transform="translate(-35.582 -4.284)" fill="none" stroke="#2e324d" stroke-miterlimit="10" stroke-width="1"/>
    <path id="패스_513" data-name="패스 513" d="M89.962,37.038c-.351-.782-1.53-.5-1.733.227-.4,1.446-.7,3.044.3,4.305a1.22,1.22,0,0,0,1.908-.246c.785-1.365.114-2.979-.472-4.286" transform="translate(-54.16 -22.545)" fill="#ce4834"/>
    <path id="패스_514" data-name="패스 514" d="M89.962,37.038c-.351-.782-1.53-.5-1.733.227-.4,1.446-.7,3.044.3,4.305a1.22,1.22,0,0,0,1.908-.246C91.219,39.959,90.548,38.345,89.962,37.038Z" transform="translate(-54.16 -22.545)" fill="none" stroke="#2e324d" stroke-miterlimit="10" stroke-width="1"/>
    <path id="패스_515" data-name="패스 515" d="M11.108,96.108h-.117a1.524,1.524,0,0,1-1.52-1.52V88.056a1.524,1.524,0,0,1,1.52-1.52h.117a1.524,1.524,0,0,1,1.52,1.52v6.532a1.524,1.524,0,0,1-1.52,1.52" transform="translate(-5.839 -53.349)" fill="#e19779"/>
    <rect id="사각형_94" data-name="사각형 94" width="3.157" height="9.572" rx="1.579" transform="translate(3.632 33.187)" fill="none" stroke="#2e324d" stroke-miterlimit="10" stroke-width="1"/>
    <path id="패스_516" data-name="패스 516" d="M26.947,96.108H26.83a1.524,1.524,0,0,1-1.52-1.52V88.056a1.524,1.524,0,0,1,1.52-1.52h.117a1.524,1.524,0,0,1,1.52,1.52v6.532a1.524,1.524,0,0,1-1.52,1.52" transform="translate(-15.603 -53.349)" fill="#e19779"/>
    <rect id="사각형_95" data-name="사각형 95" width="3.157" height="9.572" rx="1.579" transform="translate(9.706 33.187)" fill="none" stroke="#2e324d" stroke-miterlimit="10" stroke-width="1"/>
    <path id="패스_517" data-name="패스 517" d="M42.785,96.108h-.117a1.524,1.524,0,0,1-1.52-1.52V88.056a1.524,1.524,0,0,1,1.52-1.52h.117a1.524,1.524,0,0,1,1.52,1.52v6.532a1.524,1.524,0,0,1-1.52,1.52" transform="translate(-25.367 -53.349)" fill="#e19779"/>
    <rect id="사각형_96" data-name="사각형 96" width="3.157" height="9.572" rx="1.579" transform="translate(15.781 33.187)" fill="none" stroke="#2e324d" stroke-miterlimit="10" stroke-width="1"/>
    <path id="패스_518" data-name="패스 518" d="M58.624,96.108h-.117a1.524,1.524,0,0,1-1.52-1.52V88.056a1.524,1.524,0,0,1,1.52-1.52h.117a1.524,1.524,0,0,1,1.52,1.52v6.532a1.524,1.524,0,0,1-1.52,1.52" transform="translate(-35.132 -53.349)" fill="#e19779"/>
    <rect id="사각형_97" data-name="사각형 97" width="3.157" height="9.572" rx="1.579" transform="translate(21.855 33.187)" fill="none" stroke="#2e324d" stroke-miterlimit="10" stroke-width="1"/>
    <path id="패스_519" data-name="패스 519" d="M74.463,96.108h-.117a1.524,1.524,0,0,1-1.52-1.52V88.056a1.524,1.524,0,0,1,1.52-1.52h.117a1.524,1.524,0,0,1,1.52,1.52v6.532a1.524,1.524,0,0,1-1.52,1.52" transform="translate(-44.897 -53.349)" fill="#e19779"/>
    <rect id="사각형_98" data-name="사각형 98" width="3.157" height="9.572" rx="1.579" transform="translate(27.929 33.187)" fill="none" stroke="#2e324d" stroke-miterlimit="10" stroke-width="1"/>
    <path id="패스_520" data-name="패스 520" d="M90.3,96.108h-.117a1.524,1.524,0,0,1-1.52-1.52V88.056a1.524,1.524,0,0,1,1.52-1.52H90.3a1.524,1.524,0,0,1,1.52,1.52v6.532a1.524,1.524,0,0,1-1.52,1.52" transform="translate(-54.661 -53.349)" fill="#e19779"/>
    <rect id="사각형_99" data-name="사각형 99" width="3.157" height="9.572" rx="1.579" transform="translate(34.003 33.187)" fill="none" stroke="#2e324d" stroke-miterlimit="10" stroke-width="1"/>
  </g>
</svg>
