<svg xmlns="http://www.w3.org/2000/svg" width="72.704" height="64.721" viewBox="0 0 72.704 64.721">
  <g id="logo" transform="translate(-1235.876 -231.567)">
    <g id="그룹_93" data-name="그룹 93" transform="translate(1235.876 231.566)">
      <g id="그룹_90" data-name="그룹 90" transform="translate(1.316 0)">
        <path id="패스_341" data-name="패스 341" d="M358.368,34.991,357.889,30l-.561-4.982-1.65-4.709-3.371-3.078-4.356-1.276-4.565-1-2.756,3.455.873,3.754,4.67,1.949,4.1,3.182,3.924,4.545.387,5.67,1.435,4.324,3.106-2.439Z" transform="translate(-340.161 -14.482)" fill="#1d1d1d"/>
        <path id="패스_342" data-name="패스 342" d="M354.089,40.812l-1.646-4.956,0-.054-.376-5.526-3.8-4.406-4.018-3.119-4.821-2.013-.972-4.171L341.5,12.74,346.36,13.8l4.451,1.3,3.526,3.218,1.7,4.855.568,5.029.478,4.982.794,4.644-3.79,2.975Zm-.8-5.124,1.226,3.691,2.424-1.9-.714-4.186-.48-4.991-.555-4.926-1.6-4.56-3.218-2.938-4.244-1.243-4.289-.936-2.461,3.083.777,3.336L344.68,22l4.2,3.274L352.9,29.93Z" transform="translate(-338.45 -12.74)" fill="#1d1d1d"/>
      </g>
      <g id="그룹_91" data-name="그룹 91" transform="translate(43.924 18.691)">
        <path id="패스_343" data-name="패스 343" d="M568.343,105.935l-1.45-3.681-4.076-.6-5.483,1.2-5.195,1.936-4.061,3.5-2.988,2.655-2.549,2.573,4.165-.82,4.915-2.917,5.744-.372,5.916.893,6.176-1.121Z" transform="translate(-541.245 -101.215)" fill="#1d1d1d"/>
        <path id="패스_344" data-name="패스 344" d="M536.52,112.616l3.556-3.586,2.988-2.654,4.126-3.554,5.326-1.979,5.558-1.213,4.4.652,1.547,3.93,1.278,3.711-6.74,1.224-5.941-.895-5.593.361-4.892,2.9-5.614,1.106Zm4.139-2.951-1.553,1.566,2.717-.536,4.941-2.932,5.892-.381,5.89.886,5.612-1.017-.949-2.756-1.353-3.44L558.1,100.5l-5.376,1.172-5.1,1.9-4,3.45-2.973,2.642Z" transform="translate(-536.52 -99.63)" fill="#1d1d1d"/>
      </g>
      <g id="그룹_92" data-name="그룹 92" transform="translate(0 17.534)">
        <path id="패스_345" data-name="패스 345" d="M380.285,125.933l.921,4.543-1.753,4.145-2.368,3.317-3.151,3.3-5.423.955-5.537,1.265-5.425-1.575-5.408-1.108-4.679-2.992-4.337-3.063-4.212-3.39-2.214-5.023-.749-4.838,2.024-4.664,4.6-1.781,2.179-4.612,4.012-3.321,1.736-5.3,4.453-2.857,5.294-.372,4.707-.742,4.78,1.187,5.636,1.469,2.669,5.46,4.7,3.42-.174,5.724-.974,5.374Z" transform="translate(-335.171 -97.052)" fill="#fff"/>
        <path id="패스_346" data-name="패스 346" d="M360.11,141.437l-5.584-1.62-5.516-1.129-4.825-3.087-4.375-3.093-4.354-3.5-2.33-5.281-.8-5.152,2.235-5.15,4.614-1.785,2.123-4.494,3.971-3.289,1.753-5.352,4.842-3.106,5.451-.383,4.825-.761,4.928,1.224,5.978,1.557,2.741,5.6,4.872,3.545-.2,6.234-.983,5.414-1.271,5.318.936,4.608-1.878,4.438-2.485,3.468-3.321,3.483-5.649.994-5.707,1.3Zm-10.523-4.169,5.33,1.093,5.238,1.519,5.382-1.228,5.18-.912,2.943-3.085,2.289-3.207,1.631-3.855-.908-4.477,1.344-5.621.959-5.3.161-5.27-4.53-3.3-2.6-5.318-5.3-1.381-4.625-1.149-4.621.727-5.1.359-4.066,2.607-1.721,5.257-4.048,3.354-2.237,4.732L335.7,114.6l-1.811,4.173.7,4.526,2.1,4.763,4.051,3.261,4.3,3.04,4.545,2.908Z" transform="translate(-332.33 -94.25)" fill="#1d1d1d"/>
      </g>
      <ellipse id="타원_60" data-name="타원 60" cx="1.086" cy="1.086" rx="1.086" ry="1.086" transform="translate(31.037 38.69)" fill="#1d1d1d"/>
      <ellipse id="타원_61" data-name="타원 61" cx="1.086" cy="1.086" rx="1.086" ry="1.086" transform="translate(19.526 34.741)" fill="#1d1d1d"/>
      <path id="패스_347" data-name="패스 347" d="M437.382,218.135c-.136,1.093-2.13,1.938-3.717,1.394s-2.779-2.418-2.031-3.367c.873-1.108,1.542-1.833,3.584-1.08s2.368,1.411,2.166,3.052Z" transform="translate(-410.092 -171.313)" fill="#1d1d1d"/>
    </g>
  </g>
</svg>
