<svg xmlns="http://www.w3.org/2000/svg" width="132.626" height="77.352" viewBox="0 0 132.626 77.352">
  <g id="logo" transform="translate(-1175.955 -231.567)">
    <g id="그룹_93" data-name="그룹 93" transform="translate(1235.876 231.566)">
      <g id="그룹_90" data-name="그룹 90" transform="translate(1.316 0)">
        <path id="패스_341" data-name="패스 341" d="M358.368,34.991,357.889,30l-.561-4.982-1.65-4.709-3.371-3.078-4.356-1.276-4.565-1-2.756,3.455.873,3.754,4.67,1.949,4.1,3.182,3.924,4.545.387,5.67,1.435,4.324,3.106-2.439Z" transform="translate(-340.161 -14.482)" fill="#1d1d1d"/>
        <path id="패스_342" data-name="패스 342" d="M354.089,40.812l-1.646-4.956,0-.054-.376-5.526-3.8-4.406-4.018-3.119-4.821-2.013-.972-4.171L341.5,12.74,346.36,13.8l4.451,1.3,3.526,3.218,1.7,4.855.568,5.029.478,4.982.794,4.644-3.79,2.975Zm-.8-5.124,1.226,3.691,2.424-1.9-.714-4.186-.48-4.991-.555-4.926-1.6-4.56-3.218-2.938-4.244-1.243-4.289-.936-2.461,3.083.777,3.336L344.68,22l4.2,3.274L352.9,29.93Z" transform="translate(-338.45 -12.74)" fill="#1d1d1d"/>
      </g>
      <g id="그룹_91" data-name="그룹 91" transform="translate(43.924 18.691)">
        <path id="패스_343" data-name="패스 343" d="M568.343,105.935l-1.45-3.681-4.076-.6-5.483,1.2-5.195,1.936-4.061,3.5-2.988,2.655-2.549,2.573,4.165-.82,4.915-2.917,5.744-.372,5.916.893,6.176-1.121Z" transform="translate(-541.245 -101.215)" fill="#1d1d1d"/>
        <path id="패스_344" data-name="패스 344" d="M536.52,112.616l3.556-3.586,2.988-2.654,4.126-3.554,5.326-1.979,5.558-1.213,4.4.652,1.547,3.93,1.278,3.711-6.74,1.224-5.941-.895-5.593.361-4.892,2.9-5.614,1.106Zm4.139-2.951-1.553,1.566,2.717-.536,4.941-2.932,5.892-.381,5.89.886,5.612-1.017-.949-2.756-1.353-3.44L558.1,100.5l-5.376,1.172-5.1,1.9-4,3.45-2.973,2.642Z" transform="translate(-536.52 -99.63)" fill="#1d1d1d"/>
      </g>
      <g id="그룹_92" data-name="그룹 92" transform="translate(0 17.534)">
        <path id="패스_345" data-name="패스 345" d="M380.285,125.933l.921,4.543-1.753,4.145-2.368,3.317-3.151,3.3-5.423.955-5.537,1.265-5.425-1.575-5.408-1.108-4.679-2.992-4.337-3.063-4.212-3.39-2.214-5.023-.749-4.838,2.024-4.664,4.6-1.781,2.179-4.612,4.012-3.321,1.736-5.3,4.453-2.857,5.294-.372,4.707-.742,4.78,1.187,5.636,1.469,2.669,5.46,4.7,3.42-.174,5.724-.974,5.374Z" transform="translate(-335.171 -97.052)" fill="#fff"/>
        <path id="패스_346" data-name="패스 346" d="M360.11,141.437l-5.584-1.62-5.516-1.129-4.825-3.087-4.375-3.093-4.354-3.5-2.33-5.281-.8-5.152,2.235-5.15,4.614-1.785,2.123-4.494,3.971-3.289,1.753-5.352,4.842-3.106,5.451-.383,4.825-.761,4.928,1.224,5.978,1.557,2.741,5.6,4.872,3.545-.2,6.234-.983,5.414-1.271,5.318.936,4.608-1.878,4.438-2.485,3.468-3.321,3.483-5.649.994-5.707,1.3Zm-10.523-4.169,5.33,1.093,5.238,1.519,5.382-1.228,5.18-.912,2.943-3.085,2.289-3.207,1.631-3.855-.908-4.477,1.344-5.621.959-5.3.161-5.27-4.53-3.3-2.6-5.318-5.3-1.381-4.625-1.149-4.621.727-5.1.359-4.066,2.607-1.721,5.257-4.048,3.354-2.237,4.732L335.7,114.6l-1.811,4.173.7,4.526,2.1,4.763,4.051,3.261,4.3,3.04,4.545,2.908Z" transform="translate(-332.33 -94.25)" fill="#1d1d1d"/>
      </g>
      <ellipse id="타원_60" data-name="타원 60" cx="1.086" cy="1.086" rx="1.086" ry="1.086" transform="translate(31.037 38.69)" fill="#1d1d1d"/>
      <ellipse id="타원_61" data-name="타원 61" cx="1.086" cy="1.086" rx="1.086" ry="1.086" transform="translate(19.526 34.741)" fill="#1d1d1d"/>
      <path id="패스_347" data-name="패스 347" d="M437.382,218.135c-.136,1.093-2.13,1.938-3.717,1.394s-2.779-2.418-2.031-3.367c.873-1.108,1.542-1.833,3.584-1.08s2.368,1.411,2.166,3.052Z" transform="translate(-410.092 -171.313)" fill="#1d1d1d"/>
    </g>
    <g id="그룹_96" data-name="그룹 96" transform="translate(1175.955 238.193)">
      <g id="그룹_94" data-name="그룹 94" transform="translate(2.177 0)">
        <path id="패스_348" data-name="패스 348" d="M67.39,56.79l3.261,2.254,3.031,1.291,1.435,3.519,3.829.179,1.9,1.71,3.035-1.108,3.1-1.878.054-2.951-.077-3.093-1.732-2.988,2.336-3.242L84.894,47.03l3.827,1.876,1.426,2.82,2.818.985,1.116,2.736,2.926,1.31L96.8,60.229l3.227,1.325,1.891,2.616,4.145-.712.71,3.941,1.568,2.476,3.177,1.446.574,3.1.77,2.885.131,2.975.577,3.018.906,3.3-1.091,2.986-1.506,2.773-2.276,2.2-1.551,2.676-2.355,1.975-2.622,1.557-2.592,1.56L97.493,103,94.6,103.7l-3.059,1.9-3.485-.191L85.3,102.82l-4.089.882-1.151-4.008-2.11-2.106-3.939-.947-1.413-2.969.925-3.739L73.1,87.015,72.4,84.128l-2.1-3.141,1.25-3.048,2.4-3.184L70.294,72.4l.151-3.154L71.35,65.9l-1.7-2.657-.293-3.061Z" transform="translate(-66.637 -46.28)" fill="#fff"/>
        <path id="패스_349" data-name="패스 349" d="M88.8,103.619h-.041l-3.485-.191a.75.75,0,0,1-.473-.2l-2.476-2.319-3.7.8a.754.754,0,0,1-.882-.527l-1.1-3.82-1.822-1.82-3.732-.9a.748.748,0,0,1-.5-.409l-1.413-2.966a.758.758,0,0,1-.052-.506l.891-3.6-.4-2.741L68.957,81.7l-2.029-3.029a.752.752,0,0,1-.071-.7l1.25-3.05a.716.716,0,0,1,.095-.168l1.91-2.536L67.137,70.3a.753.753,0,0,1-.344-.669l.151-3.151a.665.665,0,0,1,.026-.159l.817-3.033-1.521-2.377a.774.774,0,0,1-.116-.333l-.278-2.9L63.99,54.433a.753.753,0,0,1,1.08-1l3.2,2.211,2.962,1.261a.749.749,0,0,1,.4.409l1.252,3.074,3.349.157a.745.745,0,0,1,.469.194l1.564,1.407,2.54-.927L83.483,59.6l.045-2.521-.071-2.885-1.635-2.822a.752.752,0,0,1,.041-.817l2.007-2.786L81.55,44.757a.753.753,0,0,1,.927-1.136L86.3,45.5a.744.744,0,0,1,.34.336l1.291,2.549,2.532.884a.751.751,0,0,1,.45.426l1,2.459,2.65,1.187a.752.752,0,0,1,.443.734l-.179,2.934,2.728,1.121a.753.753,0,0,1,.323.256L99.5,60.618l3.685-.632a.754.754,0,0,1,.869.609l.684,3.795,1.368,2.162,2.973,1.353a.75.75,0,0,1,.428.549l.568,3.07.764,2.857a.838.838,0,0,1,.026.161l.129,2.919.559,2.936.9,3.272a.758.758,0,0,1-.019.458l-1.091,2.986a.852.852,0,0,1-.045.1l-1.506,2.773a.758.758,0,0,1-.138.181l-2.2,2.13-1.5,2.588a.749.749,0,0,1-.168.2l-2.355,1.973a.824.824,0,0,1-.1.071l-2.622,1.557-2.588,1.557a.776.776,0,0,1-.224.09L94.91,101l-2.758.675L89.2,103.507a.77.77,0,0,1-.4.114Zm-3.171-1.68,2.975.163,2.857-1.773a.807.807,0,0,1,.217-.093l2.889-.708,2.883-.643,2.487-1.5,2.575-1.529,2.207-1.848L106.2,91.45a.724.724,0,0,1,.127-.163l2.192-2.123,1.424-2.624.99-2.708-.843-3.068a.565.565,0,0,1-.013-.058l-.574-3.02a.919.919,0,0,1-.013-.108l-.127-2.893-.749-2.805-.013-.058-.5-2.713-2.82-1.284a.764.764,0,0,1-.325-.282l-1.568-2.476a.764.764,0,0,1-.105-.269l-.579-3.205-3.412.585a.753.753,0,0,1-.738-.3l-1.766-2.442-3.029-1.246a.755.755,0,0,1-.465-.742l.179-2.951-2.45-1.1a.757.757,0,0,1-.389-.4l-.987-2.424-2.5-.871a.756.756,0,0,1-.424-.37l-1.312-2.594-.7-.342.691.893a.752.752,0,0,1,.015.9l-2.05,2.846L84.856,53.6a.753.753,0,0,1,.1.359l.075,3.091v.032l-.052,2.951a.754.754,0,0,1-.361.63l-3.1,1.878a.611.611,0,0,1-.131.062l-3.035,1.11a.753.753,0,0,1-.761-.148l-1.7-1.529-3.562-.166a.754.754,0,0,1-.663-.467l-1.316-3.231L67.608,57a.8.8,0,0,1-.133-.073l-.493-.34.278.48a.774.774,0,0,1,.1.305l.275,2.88,1.6,2.5a.752.752,0,0,1,.092.6l-.884,3.276-.127,2.637,3.291,2.117a.753.753,0,0,1,.194,1.086l-2.34,3.106L68.4,78.171l1.88,2.807a.77.77,0,0,1,.108.243l.693,2.885a.652.652,0,0,1,.013.069l.422,2.921a.765.765,0,0,1-.015.288l-.86,3.476,1.142,2.4,3.588.863a.749.749,0,0,1,.357.2l2.11,2.106a.746.746,0,0,1,.191.325l.957,3.332,3.4-.734a.752.752,0,0,1,.673.187l2.564,2.4Z" transform="translate(-63.888 -43.545)" fill="#1d1d1d"/>
      </g>
      <g id="그룹_95" data-name="그룹 95" transform="translate(23.972 35.563)">
        <path id="패스_350" data-name="패스 350" d="M175.464,210.868s-5.855-.153-7.914,4.339c0,0,2.605,3.158,5.8,1.248S175.464,210.868,175.464,210.868Z" transform="translate(-167.047 -210.437)" fill="#1d1d1d"/>
        <path id="패스_351" data-name="패스 351" d="M169.422,215.927a5.914,5.914,0,0,1-4.04-2.016l-.172-.209.112-.245c2.151-4.7,8.067-4.595,8.316-4.591l.314.009.088.3c.011.041,1.125,4.02-2.31,6.077A4.445,4.445,0,0,1,169.422,215.927Zm-3.194-2.364c.609.626,2.65,2.4,5.059.953a4.486,4.486,0,0,0,1.994-4.782C172.079,209.788,167.948,210.216,166.227,213.563Z" transform="translate(-165.21 -208.866)" fill="#1d1d1d"/>
      </g>
      <path id="패스_352" data-name="패스 352" d="M157.829,217.776c-1.512,0-3.405-1.017-5.649-3.037a.43.43,0,1,1,.576-.639c2.607,2.349,4.672,3.253,5.976,2.618,1.977-.964,2.121-5.343,2.009-6.948a.432.432,0,0,1,.191-.389.427.427,0,0,1,.432-.024c.056.028,5.533,2.8,7.942.839,1.362-1.108,1.529-3.577.5-7.342a.431.431,0,1,1,.83-.228c1.129,4.124.865,6.9-.787,8.237-2.317,1.882-6.591.288-8.226-.435.022,1.708-.172,5.922-2.517,7.064a2.894,2.894,0,0,1-1.28.286Z" transform="translate(-130.899 -168.157)" fill="#1d1d1d"/>
      <ellipse id="타원_62" data-name="타원 62" cx="1.086" cy="1.086" rx="1.086" ry="1.086" transform="translate(30.841 28.973)" fill="#1d1d1d"/>
      <ellipse id="타원_63" data-name="타원 63" cx="1.086" cy="1.086" rx="1.086" ry="1.086" transform="translate(17.988 35.845)" fill="#1d1d1d"/>
      <path id="패스_353" data-name="패스 353" d="M248.95,119.863l-.83-.226.8-2.964.626-2.951,1.454-2.68,1.635-2.667,2.577-1.794.49.706-2.429,1.691-1.534,2.5-1.377,2.543-.609,2.865Z" transform="translate(-206.313 -93.02)" fill="#1d1d1d"/>
      <path id="패스_354" data-name="패스 354" d="M254.379,167.388l-.359-.783,3.029-1.392,3.1-1.377,3.315-.667,3.272,1.037-.26.82-3.059-.968-3.05.613L257.4,166Z" transform="translate(-210.944 -137.437)" fill="#1d1d1d"/>
      <path id="패스_355" data-name="패스 355" d="M268.277,199.486l-.447-.734,3.044-1.85,3.745-.342,3.268,1.813-.417.753-3.035-1.684-3.285.3Z" transform="translate(-221.783 -163.644)" fill="#1d1d1d"/>
      <path id="패스_356" data-name="패스 356" d="M53.983,255.019l-.213-.832,2.917-.742,2.878-.49,2.945-.364,2.956.041-.013.86-2.9-.039-2.867.353-2.842.484Z" transform="translate(-53.77 -207.622)" fill="#1d1d1d"/>
      <path id="패스_357" data-name="패스 357" d="M91.347,275.968l-.757-.409,1.542-2.865,2.954-1.687,3.222-.768.2.837-3.1.74-2.633,1.5Z" transform="translate(-82.67 -221.475)" fill="#1d1d1d"/>
      <path id="패스_358" data-name="패스 358" d="M113.578,298.307l-1.088-3.861.256-2.9,1.96-2.272,2.048-1.884.583.632-2.029,1.869-1.727,2-.219,2.467,1.045,3.711Z" transform="translate(-99.859 -234.936)" fill="#1d1d1d"/>
    </g>
    <g id="그룹_97" data-name="그룹 97" transform="translate(1210.682 297.374)">
      <path id="패스_359" data-name="패스 359" d="M219.441,318.66h.383q1.375,0,2.883,5.965.387,3.062.389,3.268a1.4,1.4,0,0,0-.194.579h-.766q-.813,0-.966-4.233a1.408,1.408,0,0,0-.572-.189l-2.693.189a1.41,1.41,0,0,0-.579-.189q-1.045,3.265-1.538,3.268c-.194,0-.385-.256-.579-.766q1.446-5.818,4.233-7.888Zm-.962,3.465.383.189a4.427,4.427,0,0,0,1.538-.383q-.452-1.155-.772-1.155a2.5,2.5,0,0,0-1.151,1.349Z" transform="translate(-215.21 -318.66)" fill="#fff"/>
      <path id="패스_360" data-name="패스 360" d="M257.229,319.552h.194a20.212,20.212,0,0,1,4.233,6.154h.383c.256,0,.447-.385.579-1.155q-.194-2.1-.194-3.655l.772-.579h.189c.194,0,.385.258.579.772a1.42,1.42,0,0,1-.189.579,24.1,24.1,0,0,1,.189,2.693v.572a3.332,3.332,0,0,1-1.538,2.889h-.189q-1.507,0-3.272-3.851-.952-1.539-1.155-1.538h-.189q-.678,4.427-1.538,4.427h-.194c-.185,0-.379-.191-.579-.579q.771-2.872,1.344-6.35l.579-.383Z" transform="translate(-246.684 -319.359)" fill="#fff"/>
      <path id="패스_361" data-name="패스 361" d="M303.556,324.93a2.273,2.273,0,0,1,1.923,1.151v.772c0,.256-.194.383-.579.383l-.962-.579h-.962q-2.5,1.649-2.5,3.655v.383c0,.185.194.379.579.579h1.538c.981,0,1.557-.256,1.734-.766q-1.539,0-1.538-1.349v-.572c.256,0,.383-.065.383-.194l1.345.194h2.5a1.249,1.249,0,0,1,1.349.962q0,.9-2.5,1.151l-.194,1.927v1.538l-.194.962H304.9q-.613,0-.962-2.117h-.189q-1.684.194-1.927.194-2.885-.294-2.883-2.889v-.579q0-2.22,3.461-4.806Z" transform="translate(-280.929 -323.581)" fill="#fff"/>
      <path id="패스_362" data-name="패스 362" d="M351.016,321.34q2.5,0,2.5.579v.962l-.194.383q-1.923-.19-2.883-.189h-1.155c-.944,0-1.458.194-1.538.579v1.538a16.972,16.972,0,0,1,4.616-.772q1.923.148,1.923.772v.579c0,.183-.194.372-.579.572H351.6q-3.365.39-3.465.389v.579l.194.962h1.155a.169.169,0,0,0,.189-.194l.389.194h3.461a1.419,1.419,0,0,0,.189.579c-.26.766-.514,1.151-.766,1.151h-3.461a9.808,9.808,0,0,0-1.734.194q-1.023,0-1.344-5a2.744,2.744,0,0,1-.194-1.349q0-2.5,3.272-2.5h1.538Z" transform="translate(-318.03 -320.764)" fill="#fff"/>
      <path id="패스_363" data-name="패스 363" d="M387.354,321.34h.962q.384,1.339,1.344,6.539h.194q1.346,0,4.233-.189l.189.962v.194q0,.72-5,.962-1,0-1.345-3.465l-.772-4.423A1.4,1.4,0,0,0,387.354,321.34Z" transform="translate(-350.171 -320.764)" fill="#fff"/>
    </g>
  </g>
</svg>
