<svg xmlns="http://www.w3.org/2000/svg" xmlns:xlink="http://www.w3.org/1999/xlink" width="198.813" height="203.583" viewBox="0 0 198.813 203.583">
  <defs>
    <clipPath id="clip-path">
      <rect id="사각형_45" data-name="사각형 45" width="198.813" height="203.584" fill="none"/>
    </clipPath>
  </defs>
  <g id="slogan" style="isolation: isolate">
    <g id="그룹_100" data-name="그룹 100" clip-path="url(#clip-path)">
      <path id="패스_417" data-name="패스 417" d="M120.382,6.369a1.283,1.283,0,0,1,.328-.561.727.727,0,0,1,.532-.15l1.858.029a1.036,1.036,0,0,1,.686.206,2.922,2.922,0,0,1,.343.749l3.81,12.963c.084.285.081.5-.01.6a.876.876,0,0,1-.569.132l-1.628-.026a.961.961,0,0,1-.6-.151,1.263,1.263,0,0,1-.275-.518l-.974-3.29-5.768-.092-1.155,3.61a.391.391,0,0,1-.376.3l-.336-.006c-.265,0-.351-.147-.259-.393ZM118.4,15.381l5.237.084-2.519-8.535Z" transform="translate(-22.71 -1.108)" fill="#fff"/>
      <path id="패스_418" data-name="패스 418" d="M142.664,22.683a.8.8,0,0,1-.241.536.89.89,0,0,1-.6.071l-1.435-.216a.773.773,0,0,1-.536-.241.722.722,0,0,1-.09-.586l.776-5.18a2.969,2.969,0,0,0-.142-1.792,1.643,1.643,0,0,0-1.236-.7,2.124,2.124,0,0,0-1.389.31,6.411,6.411,0,0,0-1.539,1.433l-.793,5.284a.8.8,0,0,1-.241.536.886.886,0,0,1-.6.071l-1.435-.215a.777.777,0,0,1-.536-.242.727.727,0,0,1-.092-.586l1.133-7.541a.724.724,0,0,1,.258-.534.777.777,0,0,1,.583-.073l1.436.216a.887.887,0,0,1,.553.244.808.808,0,0,1,.073.584l-.139.927a4.682,4.682,0,0,1,1.825-1.193,4.7,4.7,0,0,1,4.637,1.054,3.319,3.319,0,0,1,.544,2.694Z" transform="translate(-25.954 -2.545)" fill="#fff"/>
      <path id="패스_419" data-name="패스 419" d="M156.943,27.451a7.169,7.169,0,0,1-.839,1.872,3.792,3.792,0,0,1-1.286,1.148,4.3,4.3,0,0,1-1.8.4,8.7,8.7,0,0,1-2.407-.408,6.942,6.942,0,0,1-3.283-1.742,2.25,2.25,0,0,1-.516-2.223c.1-.339.224-.561.373-.627.142-.105.377-.09.734.017l1.1.331c.355.106.578.228.655.4a1.081,1.081,0,0,1-.051.724,1.822,1.822,0,0,0,.039,1.47,2.111,2.111,0,0,0,1.284.829,2.753,2.753,0,0,0,1.09.123,1.643,1.643,0,0,0,.837-.451,4.609,4.609,0,0,0,.673-1.073,17.486,17.486,0,0,0,.612-1.737l.351-1.168a3.813,3.813,0,0,1-1.685.75,4.31,4.31,0,0,1-1.9-.143,5.144,5.144,0,0,1-1.608-.8,4.09,4.09,0,0,1-1.092-1.287,3.981,3.981,0,0,1-.478-1.732,5.389,5.389,0,0,1,.256-2.084,5.414,5.414,0,0,1,.933-1.882,3.989,3.989,0,0,1,1.352-1.183,4.091,4.091,0,0,1,1.62-.474,5.169,5.169,0,0,1,1.781.22,4.092,4.092,0,0,1,1.657.941,3.826,3.826,0,0,1,.993,1.553l.188-.626a.721.721,0,0,1,.332-.491.771.771,0,0,1,.588.01l1.39.417a.88.88,0,0,1,.513.32.8.8,0,0,1-.01.588Zm-6.121-6.563a4.783,4.783,0,0,0-.191,2.916,1.95,1.95,0,0,0,1.35,1.347,2.168,2.168,0,0,0,1.674-.162,3.631,3.631,0,0,0,1.359-1.329l.834-2.778a3.739,3.739,0,0,0-.4-1.858,2.168,2.168,0,0,0-1.308-1.057,1.975,1.975,0,0,0-1.864.364,4.9,4.9,0,0,0-1.449,2.557" transform="translate(-28.733 -3.231)" fill="#fff"/>
      <path id="패스_420" data-name="패스 420" d="M165.843,26.4a7.628,7.628,0,0,0-.552,1.634,2.763,2.763,0,0,0-.076,1.23,1.657,1.657,0,0,0,.4.864,2.506,2.506,0,0,0,.837.6,2.163,2.163,0,0,0,1.509.184,1.876,1.876,0,0,0,1.024-1.049.724.724,0,0,1,.4-.441.775.775,0,0,1,.581.09l1.318.6a.8.8,0,0,1,.45.38.81.81,0,0,1-.09.581,2.037,2.037,0,0,1-.845.955,3.413,3.413,0,0,1-1.311.315,6.628,6.628,0,0,1-1.662-.235,13.869,13.869,0,0,1-1.861-.694,7.637,7.637,0,0,1-1.8-1.132,4.645,4.645,0,0,1-1.113-1.48,3.738,3.738,0,0,1-.308-1.793,5.564,5.564,0,0,1,.552-2.1,5.322,5.322,0,0,1,1.243-1.785,3.888,3.888,0,0,1,1.622-.911,4.887,4.887,0,0,1,1.864-.121,7.73,7.73,0,0,1,2.015.61,7.168,7.168,0,0,1,1.878,1.209,4.828,4.828,0,0,1,1.1,1.5,4.329,4.329,0,0,1,.344,1.673,4.6,4.6,0,0,1-.421,1.772.88.88,0,0,1-.363.455.8.8,0,0,1-.581-.09Zm3.912-2.86c-1.32-.6-2.506.08-3.545,2.055l4.166,1.9a5.613,5.613,0,0,0,.577-2.5,1.838,1.838,0,0,0-1.2-1.462" transform="translate(-31.872 -4.319)" fill="#fff"/>
      <path id="패스_421" data-name="패스 421" d="M177.312,34.956a.806.806,0,0,1-.421.41.885.885,0,0,1-.586-.155l-1.255-.727c-.245-.142-.372-.277-.41-.422a.721.721,0,0,1,.131-.578l6.582-11.363a.724.724,0,0,1,.437-.4.774.774,0,0,1,.57.146l1.256.728a.884.884,0,0,1,.425.431.8.8,0,0,1-.146.569Z" transform="translate(-34.199 -4.251)" fill="#fff"/>
      <path id="패스_422" data-name="패스 422" d="M195.806,32.609a1.28,1.28,0,0,1,.6-.239.733.733,0,0,1,.513.21l1.443,1.17a1.031,1.031,0,0,1,.413.585,2.894,2.894,0,0,1-.193.8l-5,12.547c-.109.276-.243.441-.379.467a.871.871,0,0,1-.528-.246l-1.264-1.025a.959.959,0,0,1-.379-.489,1.248,1.248,0,0,1,.1-.577l1.264-3.188-4.48-3.632-3.136,2.126a.389.389,0,0,1-.478,0l-.261-.212c-.206-.166-.186-.332.039-.469Zm-7.122,5.864,4.068,3.3,3.287-8.267Z" transform="translate(-36.018 -6.339)" fill="#fff"/>
      <path id="패스_423" data-name="패스 423" d="M203.953,58.792a.8.8,0,0,1-.523.268.887.887,0,0,1-.514-.32l-.985-1.065a.773.773,0,0,1-.268-.523.726.726,0,0,1,.3-.514l3.842-3.556a2.964,2.964,0,0,0,1.009-1.488,1.645,1.645,0,0,0-.525-1.322,2.121,2.121,0,0,0-1.277-.626,6.425,6.425,0,0,0-2.1.157l-3.92,3.628a.8.8,0,0,1-.523.267.888.888,0,0,1-.514-.32l-.985-1.065a.777.777,0,0,1-.268-.524.727.727,0,0,1,.3-.514l5.6-5.178a.726.726,0,0,1,.536-.255.778.778,0,0,1,.5.308l.984,1.065a.886.886,0,0,1,.28.536.8.8,0,0,1-.307.5l-.688.637a4.67,4.67,0,0,1,2.169.209,4.11,4.11,0,0,1,1.672,1.1,4.156,4.156,0,0,1,1.288,2.616,3.319,3.319,0,0,1-1.258,2.442Z" transform="translate(-38.525 -8.978)" fill="#fff"/>
      <path id="패스_424" data-name="패스 424" d="M208.9,64.524a.8.8,0,0,1-.547.214.886.886,0,0,1-.479-.371L207,63.21a.772.772,0,0,1-.214-.548.725.725,0,0,1,.346-.482l6.793-5.129a.727.727,0,0,1,.559-.2.777.777,0,0,1,.469.356l.874,1.158a.883.883,0,0,1,.224.562.8.8,0,0,1-.356.468Zm8.215-9.884a1.428,1.428,0,0,1,1.089-.29,1.4,1.4,0,0,1,.969.577,1.45,1.45,0,0,1-.288,2.058,1.4,1.4,0,0,1-1.089.289,1.425,1.425,0,0,1-.967-.577,1.45,1.45,0,0,1,.286-2.058" transform="translate(-40.499 -10.642)" fill="#fff"/>
      <path id="패스_425" data-name="패스 425" d="M215.624,75.79a.8.8,0,0,1-.571.142.883.883,0,0,1-.427-.428l-.719-1.261a.773.773,0,0,1-.142-.571.726.726,0,0,1,.4-.434l5.012-2.856a2.3,2.3,0,0,0,1.035-.936,1.085,1.085,0,0,0-.115-.952c-.333-.585-1.275-.843-2.793-.792l-4.751,2.708a.8.8,0,0,1-.571.142.884.884,0,0,1-.428-.428l-.718-1.261a.777.777,0,0,1-.142-.571.731.731,0,0,1,.4-.434l6.626-3.776a.728.728,0,0,1,.58-.126c.146.04.279.167.419.413l.718,1.261a.879.879,0,0,1,.15.586.794.794,0,0,1-.413.418l-.676.386a3.481,3.481,0,0,1,3.053,1.784,2.726,2.726,0,0,1-.321,3.584,3.6,3.6,0,0,1,3.386,1.8,2.778,2.778,0,0,1-1.263,4.325L218.69,81.17a.8.8,0,0,1-.57.142.884.884,0,0,1-.429-.429l-.718-1.26a.772.772,0,0,1-.142-.571c.031-.161.174-.3.4-.434l5.011-2.856a2.3,2.3,0,0,0,1.035-.936,1.086,1.086,0,0,0-.115-.953c-.333-.584-1.274-.842-2.8-.807a.278.278,0,0,0-.1.076l-.122.071Z" transform="translate(-41.263 -12.521)" fill="#fff"/>
      <path id="패스_426" data-name="패스 426" d="M224.462,95.828a.893.893,0,0,1-.592.029.8.8,0,0,1-.345-.476l-.5-1.361a.817.817,0,0,1-.052-.6.662.662,0,0,1,.476-.345l.564-.207a5.132,5.132,0,0,1-.794-.367,8.035,8.035,0,0,1-.78-.637,8.682,8.682,0,0,1-.685-.84,6.336,6.336,0,0,1-.513-1.037,7.383,7.383,0,0,1-.289-1.044,3.088,3.088,0,0,1-.006-1.09,2.028,2.028,0,0,1,1.4-1.626,2.276,2.276,0,0,1,1.312-.124,2.853,2.853,0,0,1,1.125.548,6.016,6.016,0,0,1,.966,1.04q.455.624.878,1.316c.107.187.213.374.348.588.113.2.248.418.384.632l.349.644c.113.2.2.4.309.584l.183-.068c.431-.158.79-.309,1.116-.447a2.7,2.7,0,0,0,.7-.5,1.405,1.405,0,0,0,.282-.669,2.205,2.205,0,0,0-.167-.918,1.54,1.54,0,0,0-.967-1.1,2.512,2.512,0,0,0-1.529.147.745.745,0,0,1-.585.046,1.233,1.233,0,0,1-.39-.649l-.4-1.078c-.129-.349-.175-.577-.111-.713.039-.146.205-.264.47-.361a2.528,2.528,0,0,1,1.164-.164,2.294,2.294,0,0,1,1.137.43,4.393,4.393,0,0,1,1.069,1.115,9.12,9.12,0,0,1,.937,1.936,8.972,8.972,0,0,1,.536,2.177,3.683,3.683,0,0,1-.257,1.659,3.5,3.5,0,0,1-1.037,1.229,7.983,7.983,0,0,1-1.864.93ZM222.7,90.919a2.86,2.86,0,0,0,.76,1.1,3.932,3.932,0,0,0,1.145.654l2.761-1c-.188-.308-.393-.61-.621-.921-.251-.323-.454-.569-.606-.777a5.926,5.926,0,0,0-.733-.766,2.375,2.375,0,0,0-.667-.377,1.317,1.317,0,0,0-.628-.071,2.748,2.748,0,0,0-.639.159,1.3,1.3,0,0,0-.833.758,1.734,1.734,0,0,0,.06,1.241m2.237,1.834a.815.815,0,0,0-.1-.019Z" transform="translate(-43.264 -16.641)" fill="#fff"/>
      <path id="패스_427" data-name="패스 427" d="M226.558,103.105a.8.8,0,0,1-.588-.011.884.884,0,0,1-.3-.524l-.367-1.4a.773.773,0,0,1,.01-.589.728.728,0,0,1,.5-.314l12.7-3.323a.721.721,0,0,1,.592.028.769.769,0,0,1,.3.507l.367,1.4a.889.889,0,0,1-.006.606.8.8,0,0,1-.508.3Z" transform="translate(-44.116 -18.977)" fill="#fff"/>
      <path id="패스_428" data-name="패스 428" d="M228.972,117.626a2.229,2.229,0,0,0,.93,1.789,3.611,3.611,0,0,0,2.168.329,4.756,4.756,0,0,0,1.146-.26,3.426,3.426,0,0,0,.9-.573,4.225,4.225,0,0,0,.7-1.013,6.855,6.855,0,0,0,.466-1.524,9.584,9.584,0,0,1,1.419-3.844,3.232,3.232,0,0,1,5.091-.291,6.528,6.528,0,0,1,1.338,3.686,7.747,7.747,0,0,1-.049,2.121,5.909,5.909,0,0,1-.592,1.679,3.821,3.821,0,0,1-1.056,1.157,3.348,3.348,0,0,1-1.459.505.763.763,0,0,1-.655-.146,1.231,1.231,0,0,1-.256-.757l-.1-.95a1.2,1.2,0,0,1,.1-.793.763.763,0,0,1,.612-.276,5.772,5.772,0,0,0,1.113-.239,2.679,2.679,0,0,0,.84-.477,1.847,1.847,0,0,0,.511-.745,2.467,2.467,0,0,0,.1-1.078,2,2,0,0,0-.309-.929,1.788,1.788,0,0,0-.649-.609,2.581,2.581,0,0,0-.937-.3,4.722,4.722,0,0,0-1.139-.007,3.875,3.875,0,0,0-1.128.275,2.2,2.2,0,0,0-.881.589,2.753,2.753,0,0,0-.647.973,6.137,6.137,0,0,0-.456,1.451,17.974,17.974,0,0,1-.645,2.378,7.383,7.383,0,0,1-.85,1.6,3.736,3.736,0,0,1-1.041.943,3.9,3.9,0,0,1-2.856.239,3.168,3.168,0,0,1-1.242-.851,5.318,5.318,0,0,1-.873-1.581,10.534,10.534,0,0,1-.492-2.368,8.553,8.553,0,0,1,.082-2.5,5.174,5.174,0,0,1,.749-1.873,3.833,3.833,0,0,1,1.283-1.2,3.989,3.989,0,0,1,1.688-.528.815.815,0,0,1,.655.146,1.323,1.323,0,0,1,.256.757l.1.95a1.362,1.362,0,0,1-.1.793.815.815,0,0,1-.612.276,4.169,4.169,0,0,0-2.515.969,2.394,2.394,0,0,0-.709,2.1" transform="translate(-44.662 -21.767)" fill="#fff"/>
      <path id="패스_429" data-name="패스 429" d="M229.4,137.951a.8.8,0,0,1-.561-.18.883.883,0,0,1-.137-.589l.054-1.45a.774.774,0,0,1,.18-.56.732.732,0,0,1,.573-.155l5.234.2a2.968,2.968,0,0,0,1.766-.341,1.65,1.65,0,0,0,.563-1.308,2.126,2.126,0,0,0-.464-1.345,6.41,6.41,0,0,0-1.6-1.37l-5.34-.2a.8.8,0,0,1-.56-.18.883.883,0,0,1-.137-.589l.053-1.45a.779.779,0,0,1,.181-.561.726.726,0,0,1,.573-.155l13.12.491a.725.725,0,0,1,.558.2.77.77,0,0,1,.137.572l-.054,1.45a.882.882,0,0,1-.181.577.8.8,0,0,1-.572.138l-6.436-.241a4.672,4.672,0,0,1,1.389,1.681,4.7,4.7,0,0,1-.531,4.725,3.318,3.318,0,0,1-2.617.84Z" transform="translate(-44.793 -25.013)" fill="#fff"/>
      <path id="패스_430" data-name="패스 430" d="M231.814,145.972a7.648,7.648,0,0,0-1.721-.121,2.73,2.73,0,0,0-1.209.237,1.645,1.645,0,0,0-.735.607,2.507,2.507,0,0,0-.366.959,2.16,2.16,0,0,0,.2,1.508,1.877,1.877,0,0,0,1.273.727.726.726,0,0,1,.528.272.782.782,0,0,1,.059.585l-.251,1.428a.6.6,0,0,1-.84.589,2.042,2.042,0,0,1-1.139-.577,3.427,3.427,0,0,1-.635-1.189,6.645,6.645,0,0,1-.192-1.668,13.961,13.961,0,0,1,.2-1.977,7.652,7.652,0,0,1,.643-2.024,4.639,4.639,0,0,1,1.152-1.451,3.753,3.753,0,0,1,1.659-.751,5.609,5.609,0,0,1,2.172,0,5.325,5.325,0,0,1,2.042.753,3.9,3.9,0,0,1,1.291,1.34,4.888,4.888,0,0,1,.587,1.773,7.744,7.744,0,0,1-.081,2.105,7.185,7.185,0,0,1-.7,2.123,4.82,4.82,0,0,1-1.17,1.447,4.325,4.325,0,0,1-1.533.755,4.611,4.611,0,0,1-1.821.04.881.881,0,0,1-.533-.237.808.808,0,0,1-.059-.585Zm3.755,3.065c.251-1.429-.71-2.405-2.884-2.913l-.791,4.513a5.607,5.607,0,0,0,2.563-.072,1.84,1.84,0,0,0,1.112-1.529" transform="translate(-44.417 -28.012)" fill="#fff"/>
      <path id="패스_431" data-name="패스 431" d="M225.406,159.693a.8.8,0,0,1-.5-.3.882.882,0,0,1,0-.605l.386-1.4a.773.773,0,0,1,.3-.5.73.73,0,0,1,.593-.02l12.655,3.5a.724.724,0,0,1,.5.322.772.772,0,0,1,0,.588l-.386,1.4a.886.886,0,0,1-.309.52.8.8,0,0,1-.589,0Z" transform="translate(-44.038 -30.712)" fill="#fff"/>
      <path id="패스_432" data-name="패스 432" d="M231.381,167.451l3.677,1.332a.721.721,0,0,1,.472.359.772.772,0,0,1-.043.586l-.495,1.365a.89.89,0,0,1-.347.495.8.8,0,0,1-.587-.043l-3.677-1.331-.85,2.346a.182.182,0,0,1-.255.133l-.466-.169c-.133-.048-.159-.133-.111-.265l.85-2.346-6.074-2.2a1.108,1.108,0,0,0-.8-.066.875.875,0,0,0-.429.56,5.7,5.7,0,0,0-.206.829,3.058,3.058,0,0,0,.027.913c.043.091.035.164-.016.2a.409.409,0,0,1-.165.091l-.248.06a.289.289,0,0,1-.353-.221,3.882,3.882,0,0,1-.105-1.111,6.106,6.106,0,0,1,.408-1.753,3.521,3.521,0,0,1,1.422-1.951,2.806,2.806,0,0,1,2.367.01l5.175,1.874.681-1.88c.048-.133.122-.181.255-.133l.466.168a.184.184,0,0,1,.111.266Z" transform="translate(-43.318 -32.318)" fill="#fff"/>
      <path id="패스_433" data-name="패스 433" d="M222.562,176.007a7.656,7.656,0,0,0-1.619-.6,2.743,2.743,0,0,0-1.226-.112,1.646,1.646,0,0,0-.876.377,2.51,2.51,0,0,0-.621.818,2.165,2.165,0,0,0-.227,1.5,1.869,1.869,0,0,0,1.018,1.053c.238.117.389.251.429.409a.777.777,0,0,1-.108.578l-.641,1.3a.6.6,0,0,1-.971.33,2.03,2.03,0,0,1-.93-.873,3.415,3.415,0,0,1-.277-1.32,6.637,6.637,0,0,1,.284-1.654,13.687,13.687,0,0,1,.749-1.84,7.632,7.632,0,0,1,1.184-1.763,4.643,4.643,0,0,1,1.512-1.07,3.734,3.734,0,0,1,1.8-.255,5.567,5.567,0,0,1,2.084.612,5.319,5.319,0,0,1,1.748,1.295,3.905,3.905,0,0,1,.864,1.649,4.9,4.9,0,0,1,.067,1.866,7.742,7.742,0,0,1-.669,2,7.148,7.148,0,0,1-1.263,1.843,4.812,4.812,0,0,1-1.529,1.061,4.322,4.322,0,0,1-1.681.294,4.583,4.583,0,0,1-1.759-.472.877.877,0,0,1-.445-.376.8.8,0,0,1,.108-.578ZM225.306,180c.64-1.3-.007-2.507-1.952-3.6l-2.024,4.109a5.624,5.624,0,0,0,2.48.65,1.838,1.838,0,0,0,1.5-1.156" transform="translate(-42.405 -33.858)" fill="#fff"/>
      <path id="패스_434" data-name="패스 434" d="M217.584,190.108a5.2,5.2,0,0,1,1.019,2.521,3.31,3.31,0,0,1-.474,2.12,2,2,0,0,1-.914.819,1.106,1.106,0,0,1-1.017-.156,1.232,1.232,0,0,1-.573-.774,1.366,1.366,0,0,1,.269-1.029,3.207,3.207,0,0,1,.373-.474,4.793,4.793,0,0,1,.491-.462,1.493,1.493,0,0,0,.421-.549,1.971,1.971,0,0,0,.139-.8,2.8,2.8,0,0,0-.256-.969,3.879,3.879,0,0,0-.782-1.1l-3.335-2.173a.8.8,0,0,1-.388-.442.891.891,0,0,1,.185-.576l.793-1.216a.771.771,0,0,1,.442-.388.726.726,0,0,1,.571.161l6.388,4.162a.728.728,0,0,1,.378.458.777.777,0,0,1-.176.561l-.791,1.215a.883.883,0,0,1-.453.4.8.8,0,0,1-.561-.175Z" transform="translate(-41.629 -36.125)" fill="#fff"/>
      <path id="패스_435" data-name="패스 435" d="M185.695,230.815a1.277,1.277,0,0,1,.024.649.732.732,0,0,1-.37.413l-1.584.971a1.039,1.039,0,0,1-.691.195,2.918,2.918,0,0,1-.689-.45l-10.162-8.905c-.223-.2-.335-.376-.314-.513a.876.876,0,0,1,.409-.417l1.389-.85a.958.958,0,0,1,.586-.193,1.255,1.255,0,0,1,.51.289l2.585,2.256,4.921-3.012-.959-3.667a.389.389,0,0,1,.16-.45l.286-.175c.227-.139.376-.064.429.193Zm-3.151-8.674-4.468,2.735,6.7,5.858Z" transform="translate(-33.668 -42.478)" fill="#fff"/>
      <path id="패스_436" data-name="패스 436" d="M166.927,241a.724.724,0,0,1,.06.59.773.773,0,0,1-.457.369l-1.334.572a.888.888,0,0,1-.6.084.809.809,0,0,1-.37-.458l-5.171-12.064a.8.8,0,0,1-.076-.583.881.881,0,0,1,.474-.376l1.333-.571a.773.773,0,0,1,.583-.077.726.726,0,0,1,.385.451l.167.39a3.184,3.184,0,0,1,.794-1.514,4.706,4.706,0,0,1,1.486-1.023,5.691,5.691,0,0,1,1.826-.455,4.23,4.23,0,0,1,1.727.26,4.016,4.016,0,0,1,1.493,1.015,6.234,6.234,0,0,1,1.632,3.8,4.019,4.019,0,0,1-.294,1.782,4.238,4.238,0,0,1-1,1.431,5.667,5.667,0,0,1-1.589,1.008,4.7,4.7,0,0,1-1.765.372,3.178,3.178,0,0,1-1.644-.469Zm.766-10.471a5.863,5.863,0,0,0-.848-1.484,2.79,2.79,0,0,0-.956-.841,2.151,2.151,0,0,0-1-.321,2.235,2.235,0,0,0-.978.189,2.421,2.421,0,0,0-.711.5,3.215,3.215,0,0,0-.49.787,2.738,2.738,0,0,0-.13,1,3.178,3.178,0,0,0,.274,1.134l.808,1.886a3.533,3.533,0,0,0,.638,1,3.405,3.405,0,0,0,.807.578,3.254,3.254,0,0,0,.908.188,2.441,2.441,0,0,0,.851-.172,2.113,2.113,0,0,0,1.277-1.509,3.245,3.245,0,0,0,.043-1.289,6.226,6.226,0,0,0-.49-1.638" transform="translate(-31.131 -44.327)" fill="#fff"/>
      <path id="패스_437" data-name="패스 437" d="M145.579,238.194a5.393,5.393,0,0,1-.166-2.1,4.542,4.542,0,0,1,.661-1.756A5.512,5.512,0,0,1,147.491,233a7.824,7.824,0,0,1,2.039-.864,7.664,7.664,0,0,1,2.2-.284,4.905,4.905,0,0,1,1.881.444,4.107,4.107,0,0,1,1.457,1.183,5.7,5.7,0,0,1,1.082,4,4.034,4.034,0,0,1-.682,1.743,4.894,4.894,0,0,1-1.4,1.332,7.062,7.062,0,0,1-2.035.881,7.229,7.229,0,0,1-2.2.266,5.229,5.229,0,0,1-1.88-.445,4.639,4.639,0,0,1-1.452-1.164,5.4,5.4,0,0,1-.917-1.9m7.566-2.049a5.345,5.345,0,0,0-1.4-2.681,2.05,2.05,0,0,0-1.98-.472,2.145,2.145,0,0,0-1.488,1.41,7,7,0,0,0,1.546,5.705,2.1,2.1,0,0,0,1.98.472,2.05,2.05,0,0,0,1.47-1.406,5.214,5.214,0,0,0-.123-3.028" transform="translate(-28.472 -45.409)" fill="#fff"/>
      <path id="패스_438" data-name="패스 438" d="M136.557,229.982a.8.8,0,0,1,.088-.581.885.885,0,0,1,.56-.231l1.439-.18a.78.78,0,0,1,.582.088.726.726,0,0,1,.245.54L141,241.8a.724.724,0,0,1-.105.584.774.774,0,0,1-.543.228l-1.439.18a.88.88,0,0,1-.6-.085.805.805,0,0,1-.228-.542l-.053-.421a3.023,3.023,0,0,1-1.2,1.238,4.471,4.471,0,0,1-1.694.569,5.872,5.872,0,0,1-1.9-.065,4.571,4.571,0,0,1-1.588-.729,4.785,4.785,0,0,1-1.156-1.39,6.54,6.54,0,0,1-.513-4.108,4.768,4.768,0,0,1,.777-1.631,4.541,4.541,0,0,1,1.361-1.1,5.877,5.877,0,0,1,1.823-.532,4.489,4.489,0,0,1,1.783.133,3.028,3.028,0,0,1,1.468.9Zm-3.741,9.01a7,7,0,0,0,.4,1.661,4.449,4.449,0,0,0,.672,1.093,2.9,2.9,0,0,0,.89.566,2.352,2.352,0,0,0,.993.09,2.449,2.449,0,0,0,.82-.281,2.83,2.83,0,0,0,.671-.619,2.646,2.646,0,0,0,.422-.909,3.109,3.109,0,0,0,.047-1.183l-.254-2.037a2.869,2.869,0,0,0-.336-1.117,2.25,2.25,0,0,0-.634-.8,2.843,2.843,0,0,0-.8-.434,2.435,2.435,0,0,0-.865-.07,2.348,2.348,0,0,0-.938.331,2.7,2.7,0,0,0-.723.786,3.663,3.663,0,0,0-.384,1.207,6.582,6.582,0,0,0,.018,1.71" transform="translate(-25.431 -44.846)" fill="#fff"/>
      <path id="패스_439" data-name="패스 439" d="M124.3,245.107l.063,3.911a.724.724,0,0,1-.168.569.77.77,0,0,1-.564.169l-1.451.023a.893.893,0,0,1-.586-.15.8.8,0,0,1-.168-.564l-.063-3.911-2.5.04c-.142,0-.214-.068-.215-.191l-.008-.5c0-.142.068-.2.209-.2l2.494-.04-.1-6.458a1.11,1.11,0,0,0-.224-.775.877.877,0,0,0-.676-.2,5.892,5.892,0,0,0-.848.1,3.059,3.059,0,0,0-.844.35c-.07.072-.14.091-.195.056a.4.4,0,0,1-.143-.121l-.145-.21a.29.29,0,0,1,.081-.409,3.831,3.831,0,0,1,1-.494,6.075,6.075,0,0,1,1.783-.241,3.519,3.519,0,0,1,2.329.635,2.8,2.8,0,0,1,.832,2.217l.087,5.5,2-.032c.142,0,.213.05.216.191l.008.5c0,.124-.068.2-.21.2Z" transform="translate(-23.134 -46.195)" fill="#fff"/>
      <path id="패스_440" data-name="패스 440" d="M104.822,234.559a8.341,8.341,0,0,1,3.565,1.243,2.065,2.065,0,0,1,1,2.057.817.817,0,0,1-.309.6,1.315,1.315,0,0,1-.8.053l-.943-.149c-.175-.028-.329-.07-.469-.092a1.386,1.386,0,0,1-.3-.137.6.6,0,0,1-.119-.269,2.844,2.844,0,0,1,.037-.46,1.5,1.5,0,0,0-.334-1.288,2.612,2.612,0,0,0-1.556-.694,3.092,3.092,0,0,0-1.753.1,1.42,1.42,0,0,0-.7,1.126,1.774,1.774,0,0,0,.031.7,1.808,1.808,0,0,0,.4.636,4.514,4.514,0,0,0,.924.612,11.011,11.011,0,0,0,1.533.618,13.041,13.041,0,0,1,1.785.712,3.594,3.594,0,0,1,1.067.724,1.522,1.522,0,0,1,.5.778,1.922,1.922,0,0,1,.037.9,1.718,1.718,0,0,1-.451.931,2.317,2.317,0,0,1-1,.648,5.86,5.86,0,0,1-1.569.289,10.61,10.61,0,0,1-2.127-.139,6.986,6.986,0,0,1-3.394-1.306,2.334,2.334,0,0,1-.917-2.133.764.764,0,0,1,.31-.6,1.226,1.226,0,0,1,.8-.054l.943.15a1.193,1.193,0,0,1,.741.3.764.764,0,0,1,.111.663,1.825,1.825,0,0,0,.268,1.475,2.18,2.18,0,0,0,1.366.646,1.846,1.846,0,0,0,1.412-.207,1.789,1.789,0,0,0,.618-1.192,1.46,1.46,0,0,0-.433-1.34,4.34,4.34,0,0,0-1.73-.955c-.881-.318-1.59-.591-2.158-.843a6.406,6.406,0,0,1-1.307-.8,1.678,1.678,0,0,1-.658-1.734,1.829,1.829,0,0,1,.428-.9,2.656,2.656,0,0,1,1.013-.628,7.02,7.02,0,0,1,1.688-.253,15.645,15.645,0,0,1,2.438.206" transform="translate(-19.38 -45.899)" fill="#fff"/>
      <path id="패스_441" data-name="패스 441" d="M85.228,230.607a.8.8,0,0,1,.317-.5.886.886,0,0,1,.6.016l1.388.42a.775.775,0,0,1,.5.316.722.722,0,0,1,.006.593l-1.515,5.012a2.967,2.967,0,0,0-.117,1.794,1.644,1.644,0,0,0,1.121.874,2.131,2.131,0,0,0,1.419-.107,6.422,6.422,0,0,0,1.728-1.2l1.546-5.114a.8.8,0,0,1,.316-.5.888.888,0,0,1,.606.016l1.388.42a.772.772,0,0,1,.5.316.724.724,0,0,1,0,.593l-3.8,12.565a.728.728,0,0,1-.334.491.776.776,0,0,1-.588-.011l-1.388-.42a.881.881,0,0,1-.513-.322.8.8,0,0,1,.011-.588l1.862-6.164a4.66,4.66,0,0,1-1.977.918,4.111,4.111,0,0,1-2-.105,4.163,4.163,0,0,1-2.436-1.6,3.319,3.319,0,0,1-.15-2.744Z" transform="translate(-16.355 -45.059)" fill="#fff"/>
      <path id="패스_442" data-name="패스 442" d="M76.911,231.053a7.625,7.625,0,0,0,.556-1.633,2.742,2.742,0,0,0,.079-1.229,1.657,1.657,0,0,0-.4-.866,2.5,2.5,0,0,0-.836-.6,2.158,2.158,0,0,0-1.51-.188,1.88,1.88,0,0,0-1.026,1.047.726.726,0,0,1-.4.441.774.774,0,0,1-.581-.092l-1.318-.606a.6.6,0,0,1-.356-.963,2.038,2.038,0,0,1,.848-.954,3.405,3.405,0,0,1,1.311-.312,6.657,6.657,0,0,1,1.663.238,14.052,14.052,0,0,1,1.859.7,7.666,7.666,0,0,1,1.795,1.136,4.656,4.656,0,0,1,1.11,1.484,3.748,3.748,0,0,1,.3,1.795,5.589,5.589,0,0,1-.556,2.1,5.33,5.33,0,0,1-1.247,1.783,3.908,3.908,0,0,1-1.624.908,4.893,4.893,0,0,1-1.865.117,7.734,7.734,0,0,1-2.014-.614,7.161,7.161,0,0,1-1.876-1.213,4.816,4.816,0,0,1-1.1-1.5,4.317,4.317,0,0,1-.34-1.674,4.6,4.6,0,0,1,.424-1.772.874.874,0,0,1,.365-.455.8.8,0,0,1,.581.092Zm-3.919,2.852c1.319.606,2.507-.075,3.55-2.048l-4.164-1.913a5.627,5.627,0,0,0-.582,2.5,1.84,1.84,0,0,0,1.2,1.465" transform="translate(-13.589 -44.087)" fill="#fff"/>
      <path id="패스_443" data-name="패스 443" d="M65.755,221.659a.805.805,0,0,1,.422-.409.9.9,0,0,1,.585.156l1.254.729c.244.143.37.277.409.423a.722.722,0,0,1-.132.577l-6.6,11.345c-.133.229-.277.371-.437.4a.771.771,0,0,1-.569-.146L59.432,234a.887.887,0,0,1-.425-.432.806.806,0,0,1,.147-.569Z" transform="translate(-11.554 -43.331)" fill="#fff"/>
      <path id="패스_444" data-name="패스 444" d="M56.71,225.324l-2.221,3.217a.727.727,0,0,1-.467.365.772.772,0,0,1-.556-.191l-1.194-.823a.886.886,0,0,1-.389-.463.805.805,0,0,1,.191-.556l2.221-3.217-2.052-1.416a.184.184,0,0,1-.064-.281l.282-.407c.08-.117.169-.12.285-.04l2.052,1.418,3.669-5.312a1.111,1.111,0,0,0,.267-.761.876.876,0,0,0-.432-.556,5.719,5.719,0,0,0-.749-.409,3.026,3.026,0,0,0-.89-.206c-.1.018-.166-.008-.19-.068a.408.408,0,0,1-.046-.182l0-.255a.29.29,0,0,1,.3-.285,3.866,3.866,0,0,1,1.1.179,6.1,6.1,0,0,1,1.591.841,3.506,3.506,0,0,1,1.524,1.87,2.8,2.8,0,0,1-.61,2.285L57.213,224.6l1.644,1.135c.116.08.145.164.064.281l-.282.408a.182.182,0,0,1-.285.039Z" transform="translate(-10.16 -42.088)" fill="#fff"/>
      <path id="패스_445" data-name="패스 445" d="M50.183,214.482a7.562,7.562,0,0,0,.988-1.413,2.731,2.731,0,0,0,.418-1.159,1.65,1.65,0,0,0-.143-.942,2.508,2.508,0,0,0-.635-.807,2.158,2.158,0,0,0-1.4-.6,1.873,1.873,0,0,0-1.277.719.723.723,0,0,1-.5.312.771.771,0,0,1-.532-.249l-1.1-.949a.6.6,0,0,1-.074-1.023,2.042,2.042,0,0,1,1.079-.68,3.42,3.42,0,0,1,1.347.066,6.658,6.658,0,0,1,1.529.692,13.985,13.985,0,0,1,1.591,1.189,7.654,7.654,0,0,1,1.406,1.591,4.66,4.66,0,0,1,.652,1.734,3.726,3.726,0,0,1-.208,1.808,5.594,5.594,0,0,1-1.119,1.862,5.315,5.315,0,0,1-1.7,1.363,3.885,3.885,0,0,1-1.813.42,4.88,4.88,0,0,1-1.822-.408,7.72,7.72,0,0,1-1.763-1.151,7.2,7.2,0,0,1-1.464-1.687,4.829,4.829,0,0,1-.64-1.747,4.351,4.351,0,0,1,.14-1.7,4.578,4.578,0,0,1,.9-1.582.877.877,0,0,1,.478-.336.807.807,0,0,1,.532.25Zm-4.557,1.646c1.1.949,2.428.627,3.978-.977l-3.463-3a5.628,5.628,0,0,0-1.255,2.235,1.837,1.837,0,0,0,.741,1.739" transform="translate(-8.418 -40.669)" fill="#fff"/>
      <path id="패스_446" data-name="패스 446" d="M37.772,206.427a5.2,5.2,0,0,1-2.7.351,3.305,3.305,0,0,1-1.932-.992,2,2,0,0,1-.563-1.09,1.107,1.107,0,0,1,.408-.946,1.225,1.225,0,0,1,.893-.359,1.359,1.359,0,0,1,.927.519,3.244,3.244,0,0,1,.367.48,4.981,4.981,0,0,1,.322.592,1.485,1.485,0,0,0,.425.545,1.974,1.974,0,0,0,.736.335,2.793,2.793,0,0,0,1,0,3.866,3.866,0,0,0,1.263-.48l2.942-2.68a.8.8,0,0,1,.526-.264.884.884,0,0,1,.511.324l.977,1.073a.773.773,0,0,1,.264.526.726.726,0,0,1-.3.512l-5.638,5.135a.726.726,0,0,1-.538.25.773.773,0,0,1-.5-.311l-.977-1.073a.882.882,0,0,1-.276-.539.8.8,0,0,1,.311-.5Z" transform="translate(-6.38 -39.647)" fill="#fff"/>
      <path id="패스_447" data-name="패스 447" d="M35.031,185.484a.8.8,0,0,1,.564-.166.879.879,0,0,1,.445.409l.773,1.227a.773.773,0,0,1,.167.564.723.723,0,0,1-.384.451l-10.389,6.54a.726.726,0,0,1-.573.152.774.774,0,0,1-.437-.394l-.773-1.228a.881.881,0,0,1-.176-.578.8.8,0,0,1,.394-.437L25,191.8a3.025,3.025,0,0,1-1.63-.562,4.488,4.488,0,0,1-1.232-1.294,5.868,5.868,0,0,1-.745-1.747,4.578,4.578,0,0,1-.013-1.747,4.77,4.77,0,0,1,.77-1.634,6.535,6.535,0,0,1,3.5-2.2,4.775,4.775,0,0,1,1.806.013,4.563,4.563,0,0,1,1.57.767,5.869,5.869,0,0,1,1.254,1.427,4.49,4.49,0,0,1,.634,1.67,3.026,3.026,0,0,1-.2,1.713Zm-9.743.427a7.02,7.02,0,0,0-1.333,1.07,4.448,4.448,0,0,0-.705,1.071,2.9,2.9,0,0,0-.136,1.046,2.348,2.348,0,0,0,.339.937,2.416,2.416,0,0,0,.6.624A2.817,2.817,0,0,0,24.9,191a2.637,2.637,0,0,0,1,0,3.12,3.12,0,0,0,1.091-.458l1.737-1.094a2.847,2.847,0,0,0,.869-.777,2.251,2.251,0,0,0,.451-.911,2.861,2.861,0,0,0,.053-.911,2.43,2.43,0,0,0-.3-.813,2.349,2.349,0,0,0-.7-.71,2.679,2.679,0,0,0-1.016-.321,3.675,3.675,0,0,0-1.256.163,6.586,6.586,0,0,0-1.541.74" transform="translate(-4.173 -35.749)" fill="#fff"/>
      <path id="패스_448" data-name="패스 448" d="M20.74,176.54a7.615,7.615,0,0,0,1.491-.868,2.743,2.743,0,0,0,.866-.877,1.644,1.644,0,0,0,.265-.916,2.515,2.515,0,0,0-.238-1,2.166,2.166,0,0,0-1.017-1.132,1.871,1.871,0,0,0-1.461.117.729.729,0,0,1-.589.072.772.772,0,0,1-.378-.45l-.6-1.322a.6.6,0,0,1,.363-.96,2.033,2.033,0,0,1,1.266-.164,3.412,3.412,0,0,1,1.195.625,6.6,6.6,0,0,1,1.1,1.271,13.887,13.887,0,0,1,.945,1.747,7.61,7.61,0,0,1,.61,2.035,4.652,4.652,0,0,1-.135,1.848,3.751,3.751,0,0,1-.948,1.554,5.567,5.567,0,0,1-1.8,1.22,5.311,5.311,0,0,1-2.111.528,3.9,3.9,0,0,1-1.823-.38,4.894,4.894,0,0,1-1.483-1.135,7.694,7.694,0,0,1-1.119-1.786,7.159,7.159,0,0,1-.621-2.146,4.845,4.845,0,0,1,.152-1.855,4.345,4.345,0,0,1,.842-1.488A4.6,4.6,0,0,1,17,170.019a.873.873,0,0,1,.573-.1.8.8,0,0,1,.379.45Zm-4.831-.418c.6,1.322,1.941,1.588,4.024.783l-1.888-4.177a5.643,5.643,0,0,0-2.078,1.5,1.842,1.842,0,0,0-.058,1.891" transform="translate(-2.838 -33.1)" fill="#fff"/>
      <path id="패스_449" data-name="패스 449" d="M10.381,165.907l-3.723,1.2a.725.725,0,0,1-.593,0,.768.768,0,0,1-.325-.491L5.3,165.236a.878.878,0,0,1-.027-.6.8.8,0,0,1,.49-.325l3.723-1.2-.762-2.375a.182.182,0,0,1,.12-.261l.472-.152c.134-.043.207.008.249.143l.764,2.375,6.149-1.976a1.109,1.109,0,0,0,.677-.44.877.877,0,0,0,0-.705,5.715,5.715,0,0,0-.344-.782,3.049,3.049,0,0,0-.579-.705c-.09-.047-.129-.109-.11-.17a.393.393,0,0,1,.075-.173l.158-.2a.29.29,0,0,1,.415-.04,3.853,3.853,0,0,1,.763.815,6.051,6.051,0,0,1,.748,1.636,3.512,3.512,0,0,1,.069,2.412,2.806,2.806,0,0,1-1.879,1.44l-5.239,1.683.611,1.9c.043.134.014.218-.121.261l-.472.152a.182.182,0,0,1-.249-.143Z" transform="translate(-1.024 -30.863)" fill="#fff"/>
      <path id="패스_450" data-name="패스 450" d="M13.992,139.768a.891.891,0,0,1,.586.094.8.8,0,0,1,.238.538l.207,1.435a.826.826,0,0,1-.073.6.665.665,0,0,1-.538.238l-.6.086a5.091,5.091,0,0,1,.7.524,8,8,0,0,1,.632.785,8.973,8.973,0,0,1,.5.965,6.365,6.365,0,0,1,.287,1.12A7.337,7.337,0,0,1,16,147.236a3.061,3.061,0,0,1-.22,1.068,2.025,2.025,0,0,1-1.707,1.3,2.282,2.282,0,0,1-1.308-.15,2.835,2.835,0,0,1-.987-.77,5.942,5.942,0,0,1-.729-1.217q-.317-.706-.588-1.471c-.065-.205-.13-.41-.219-.647-.068-.223-.155-.46-.244-.7l-.208-.7c-.068-.223-.116-.43-.182-.635l-.192.028c-.456.066-.838.139-1.186.207a2.69,2.69,0,0,0-.79.347,1.422,1.422,0,0,0-.415.6,2.218,2.218,0,0,0-.026.934,1.539,1.539,0,0,0,.72,1.272,2.5,2.5,0,0,0,1.527.173.74.74,0,0,1,.582.077,1.231,1.231,0,0,1,.247.715l.164,1.138c.054.368.051.6-.039.721-.07.135-.254.216-.535.257A2.54,2.54,0,0,1,8.49,149.7a2.3,2.3,0,0,1-1.024-.656,4.445,4.445,0,0,1-.815-1.312,9.138,9.138,0,0,1-.515-2.088,9.017,9.017,0,0,1-.073-2.242,3.686,3.686,0,0,1,.6-1.57,3.5,3.5,0,0,1,1.269-.987,8.012,8.012,0,0,1,2.016-.523Zm.711,5.171a2.868,2.868,0,0,0-.518-1.23,3.875,3.875,0,0,0-.983-.877l-2.909.4c.121.34.259.678.417,1.031.179.367.326.65.432.885a5.727,5.727,0,0,0,.56.9,2.377,2.377,0,0,0,.573.507,1.33,1.33,0,0,0,.6.2,2.76,2.76,0,0,0,.658-.024,1.3,1.3,0,0,0,.972-.569,1.728,1.728,0,0,0,.2-1.226m-1.81-2.26a1.021,1.021,0,0,0,.1.04Z" transform="translate(-1.179 -27.373)" fill="#fff"/>
      <path id="패스_451" data-name="패스 451" d="M13.47,124.509a.8.8,0,0,1,.569.15.881.881,0,0,1,.168.581l.023,1.451a.771.771,0,0,1-.15.569.726.726,0,0,1-.564.186l-5.237.084a2.966,2.966,0,0,0-1.745.435,1.642,1.642,0,0,0-.492,1.336,2.124,2.124,0,0,0,.535,1.319A6.384,6.384,0,0,0,8.244,131.9l5.344-.085a.8.8,0,0,1,.569.15.887.887,0,0,1,.169.581L14.347,134a.77.77,0,0,1-.15.569.724.724,0,0,1-.563.187l-7.626.121a.726.726,0,0,1-.569-.168.775.775,0,0,1-.168-.564l-.024-1.451a.893.893,0,0,1,.15-.586.8.8,0,0,1,.564-.169l.938-.014a4.666,4.666,0,0,1-1.476-1.605A4.7,4.7,0,0,1,5.7,125.57a3.316,3.316,0,0,1,2.568-.979Z" transform="translate(-0.962 -24.385)" fill="#fff"/>
      <path id="패스_452" data-name="패스 452" d="M.637,110.208a.727.727,0,0,1-.538-.251.772.772,0,0,1-.084-.582l.191-1.437a.893.893,0,0,1,.235-.558.8.8,0,0,1,.582-.083l13.01,1.73a.8.8,0,0,1,.54.232.889.889,0,0,1,.08.6l-.191,1.439a.77.77,0,0,1-.232.54.719.719,0,0,1-.585.1l-.421-.055a3.174,3.174,0,0,1,.9,1.457,4.712,4.712,0,0,1,.117,1.8,5.65,5.65,0,0,1-.543,1.8,4.232,4.232,0,0,1-1.107,1.352,4.032,4.032,0,0,1-1.637.763,5.406,5.406,0,0,1-2.1.079,5.42,5.42,0,0,1-2.006-.624,4.024,4.024,0,0,1-1.379-1.164,4.22,4.22,0,0,1-.716-1.595A5.642,5.642,0,0,1,4.7,113.87a4.719,4.719,0,0,1,.583-1.706,3.187,3.187,0,0,1,1.245-1.173Zm8.6,6.015a5.9,5.9,0,0,0,1.709.031,2.789,2.789,0,0,0,1.213-.392,2.128,2.128,0,0,0,.788-.7,2.217,2.217,0,0,0,.339-.937,2.43,2.43,0,0,0-.063-.865,3.28,3.28,0,0,0-.426-.823,2.736,2.736,0,0,0-.792-.622,3.188,3.188,0,0,0-1.113-.345L8.86,111.3a3.517,3.517,0,0,0-1.183.039,3.408,3.408,0,0,0-.909.4,3.292,3.292,0,0,0-.626.684,2.45,2.45,0,0,0-.287.819,2.123,2.123,0,0,0,.644,1.87,3.227,3.227,0,0,0,1.084.7,6.211,6.211,0,0,0,1.658.417" transform="translate(0 -21.012)" fill="#fff"/>
      <path id="패스_453" data-name="패스 453" d="M10.288,93.615a3.03,3.03,0,0,1-.589-1.62,4.519,4.519,0,0,1,.229-1.772,5.864,5.864,0,0,1,.888-1.679,4.58,4.58,0,0,1,1.349-1.111A4.77,4.77,0,0,1,13.918,87a6.542,6.542,0,0,1,3.919,1.332,4.784,4.784,0,0,1,1.127,1.41,4.571,4.571,0,0,1,.392,1.7,5.9,5.9,0,0,1-.318,1.872,4.5,4.5,0,0,1-.9,1.545,3.027,3.027,0,0,1-1.455.926l.4.136a.806.806,0,0,1,.485.334.883.883,0,0,1-.037.6l-.467,1.373a.771.771,0,0,1-.333.484.723.723,0,0,1-.593-.014L3.715,94.483a.73.73,0,0,1-.479-.35.775.775,0,0,1,.031-.587l.467-1.373a.892.892,0,0,1,.339-.5.8.8,0,0,1,.588.031Zm4.753-3.485a6.978,6.978,0,0,0-1.67-.362,4.435,4.435,0,0,0-1.276.126,2.9,2.9,0,0,0-.9.554,2.359,2.359,0,0,0-.515.853,2.449,2.449,0,0,0-.106.86,2.852,2.852,0,0,0,.264.875,2.649,2.649,0,0,0,.634.775,3.094,3.094,0,0,0,1.042.56l1.943.66a2.852,2.852,0,0,0,1.152.186A2.235,2.235,0,0,0,16.6,95a2.828,2.828,0,0,0,.742-.532,2.42,2.42,0,0,0,.441-.747,2.349,2.349,0,0,0,.113-.989,2.7,2.7,0,0,0-.392-.993,3.677,3.677,0,0,0-.918-.872,6.6,6.6,0,0,0-1.546-.731" transform="translate(-0.625 -17.04)" fill="#fff"/>
      <path id="패스_454" data-name="패스 454" d="M20.827,80.665a7.616,7.616,0,0,0,1.613.612,2.757,2.757,0,0,0,1.226.121,1.641,1.641,0,0,0,.878-.371,2.478,2.478,0,0,0,.626-.813,2.158,2.158,0,0,0,.24-1.5A1.88,1.88,0,0,0,24.4,77.65c-.237-.119-.387-.253-.426-.412a.777.777,0,0,1,.113-.577l.65-1.3a.6.6,0,0,1,.974-.322,2.041,2.041,0,0,1,.924.88,3.418,3.418,0,0,1,.267,1.321,6.694,6.694,0,0,1-.3,1.653,13.845,13.845,0,0,1-.763,1.834,7.65,7.65,0,0,1-1.2,1.753,4.653,4.653,0,0,1-1.521,1.057,3.743,3.743,0,0,1-1.8.242,5.6,5.6,0,0,1-2.08-.629A5.327,5.327,0,0,1,17.5,81.845a3.9,3.9,0,0,1-.85-1.655,4.88,4.88,0,0,1-.052-1.866,7.71,7.71,0,0,1,.684-1.992A7.181,7.181,0,0,1,18.561,74.5,4.835,4.835,0,0,1,20.1,73.45a4.349,4.349,0,0,1,1.685-.281,4.6,4.6,0,0,1,1.755.486.873.873,0,0,1,.442.38.8.8,0,0,1-.113.577ZM18.114,76.65c-.651,1.3-.013,2.507,1.924,3.619l2.056-4.094a5.628,5.628,0,0,0-2.474-.668,1.838,1.838,0,0,0-1.505,1.144" transform="translate(-3.239 -14.33)" fill="#fff"/>
      <path id="패스_455" data-name="패스 455" d="M25.886,61.291,22.73,58.983a.723.723,0,0,1-.352-.477.771.771,0,0,1,.206-.551l.856-1.171a.887.887,0,0,1,.474-.378.8.8,0,0,1,.55.206l3.157,2.308,1.472-2.014a.183.183,0,0,1,.282-.056l.4.293c.114.084.115.172.031.286l-1.472,2.014,5.213,3.811a1.109,1.109,0,0,0,.753.289.874.874,0,0,0,.569-.417,5.694,5.694,0,0,0,.429-.738,3.033,3.033,0,0,0,.23-.884c-.015-.1.012-.166.072-.188a.4.4,0,0,1,.183-.041l.255.01a.29.29,0,0,1,.277.312,3.857,3.857,0,0,1-.21,1.1,6.078,6.078,0,0,1-.884,1.567,3.516,3.516,0,0,1-1.911,1.475,2.805,2.805,0,0,1-2.269-.673L26.6,61.813l-1.18,1.614c-.084.114-.168.141-.282.057l-.4-.293a.183.183,0,0,1-.031-.286Z" transform="translate(-4.382 -11.047)" fill="#fff"/>
      <path id="패스_456" data-name="패스 456" d="M44.534,51.3a.8.8,0,0,1,.306.5.881.881,0,0,1-.281.536l-.987,1.062a.775.775,0,0,1-.5.306.727.727,0,0,1-.536-.256L38.7,49.89a2.961,2.961,0,0,0-1.559-.9,1.642,1.642,0,0,0-1.279.622,2.12,2.12,0,0,0-.528,1.321,6.437,6.437,0,0,0,.313,2.079l3.914,3.64a.8.8,0,0,1,.306.5.879.879,0,0,1-.281.536l-.988,1.062a.771.771,0,0,1-.5.306.727.727,0,0,1-.536-.256l-9.614-8.941a.723.723,0,0,1-.294-.515.775.775,0,0,1,.269-.523l.987-1.062a.89.89,0,0,1,.515-.319.8.8,0,0,1,.523.269L34.659,52.1a4.669,4.669,0,0,1,.046-2.18,4.7,4.7,0,0,1,3.488-3.232,3.321,3.321,0,0,1,2.531,1.073Z" transform="translate(-5.415 -9.143)" fill="#fff"/>
      <path id="패스_457" data-name="패스 457" d="M49.2,43.769a7.6,7.6,0,0,0,1.223,1.216,2.744,2.744,0,0,0,1.07.61,1.647,1.647,0,0,0,.954.019,2.5,2.5,0,0,0,.9-.487,2.159,2.159,0,0,0,.831-1.275,1.878,1.878,0,0,0-.491-1.382.726.726,0,0,1-.222-.55.776.776,0,0,1,.338-.482l1.123-.919a.6.6,0,0,1,1.02.1,2.036,2.036,0,0,1,.486,1.18,3.412,3.412,0,0,1-.3,1.316,6.624,6.624,0,0,1-.944,1.39,14.02,14.02,0,0,1-1.443,1.365,7.682,7.682,0,0,1-1.809,1.114,4.639,4.639,0,0,1-1.82.346,3.747,3.747,0,0,1-1.747-.514A5.6,5.6,0,0,1,46.737,45.4a5.326,5.326,0,0,1-1.053-1.9,3.9,3.9,0,0,1-.1-1.858,4.885,4.885,0,0,1,.714-1.727,7.694,7.694,0,0,1,1.436-1.542,7.162,7.162,0,0,1,1.914-1.154,4.846,4.846,0,0,1,1.83-.332,4.34,4.34,0,0,1,1.655.429,4.6,4.6,0,0,1,1.406,1.16.879.879,0,0,1,.248.528.8.8,0,0,1-.338.482Zm-.843-4.774c-1.123.919-1.033,2.285.282,4.089l3.547-2.9a5.622,5.622,0,0,0-1.989-1.62,1.838,1.838,0,0,0-1.841.432" transform="translate(-8.914 -7.223)" fill="#fff"/>
      <path id="패스_458" data-name="패스 458" d="M52.972,28.506a1.424,1.424,0,0,1-.228-1.1,1.4,1.4,0,0,1,.63-.934,1.451,1.451,0,0,1,2.038.4,1.4,1.4,0,0,1,.228,1.1,1.429,1.429,0,0,1-.63.934,1.449,1.449,0,0,1-2.038-.4m9.406,8.757a.8.8,0,0,1,.183.559.883.883,0,0,1-.4.458l-1.205.808a.773.773,0,0,1-.559.183.728.728,0,0,1-.462-.372L55.2,31.828a.728.728,0,0,1-.168-.569.776.776,0,0,1,.382-.448L56.617,30a.885.885,0,0,1,.574-.193.8.8,0,0,1,.447.382Z" transform="translate(-10.324 -5.133)" fill="#fff"/>
      <path id="패스_459" data-name="패스 459" d="M65.91,29.534a5.187,5.187,0,0,1,.281-2.7A3.3,3.3,0,0,1,67.6,25.178a2,2,0,0,1,1.19-.3,1.1,1.1,0,0,1,.826.614,1.227,1.227,0,0,1,.144.952,1.359,1.359,0,0,1-.719.782,3.161,3.161,0,0,1-.552.245,4.972,4.972,0,0,1-.65.179,1.488,1.488,0,0,0-.629.288,1.968,1.968,0,0,0-.5.638,2.772,2.772,0,0,0-.228.976,3.866,3.866,0,0,0,.175,1.338l1.93,3.482a.8.8,0,0,1,.135.572.88.88,0,0,1-.433.423l-1.268.7a.77.77,0,0,1-.573.135c-.16-.032-.3-.177-.429-.409l-3.7-6.669a.724.724,0,0,1-.12-.581c.041-.144.17-.277.418-.414l1.269-.7a.884.884,0,0,1,.588-.144.8.8,0,0,1,.413.417Z" transform="translate(-12.179 -4.872)" fill="#fff"/>
      <path id="패스_460" data-name="패스 460" d="M195.659,214.714c-2.624-2.281-1.343-7.578,1.237-10.546s7.335-5.245,9.959-2.965,3.68,9.61,1.1,12.578-9.672,3.214-12.3.934" transform="translate(-38.038 -39.224)" fill="#fff"/>
      <path id="패스_461" data-name="패스 461" d="M217.768,206.833c-1.909-.022-3.353-.429-3.331-2.339s1.915-2.358,3.825-2.336,2.809.5,2.787,2.412-1.372,2.285-3.281,2.263" transform="translate(-41.998 -39.593)" fill="#fff"/>
      <path id="패스_462" data-name="패스 462" d="M217.262,216.963c-1.8-.639-2.7-.923-2.063-2.722s2.245-2.181,4.045-1.541,3.181,1.627,2.542,3.426-2.725,1.476-4.524.836" transform="translate(-42.107 -41.601)" fill="#fff"/>
      <path id="패스_463" data-name="패스 463" d="M208.3,224.073c-.881-1.694-.469-2.681,1.226-3.562s1.855,0,2.736,1.69a3.23,3.23,0,0,1-1.18,4.545c-1.694.881-1.9-.98-2.782-2.674" transform="translate(-40.708 -43.12)" fill="#fff"/>
      <path id="패스_464" data-name="패스 464" d="M196.861,224.844c.139-1.9,1.328-3.389,3.232-3.25s1.545,2.133,2.1,3.96c.574,1.9-.14,3.17-2.044,3.031a3.567,3.567,0,0,1-3.286-3.742" transform="translate(-38.554 -43.398)" fill="#fff"/>
      <path id="패스_465" data-name="패스 465" d="M100.449,15.777c.889,3.361-3.147,7.023-6.949,8.029s-9.015.217-9.9-3.144S85.951,10.646,89.753,9.64s9.807,2.777,10.7,6.137" transform="translate(-16.343 -1.856)" fill="#fff"/>
      <path id="패스_466" data-name="패스 466" d="M79.042,12.875c1.566,1.091,2.532,2.24,1.441,3.807s-2.91.874-4.477-.217-2.041-2-.95-3.562,2.419-1.119,3.985-.028" transform="translate(-14.584 -2.328)" fill="#fff"/>
      <path id="패스_467" data-name="패스 467" d="M85.212,4.642c1.129,1.54,1.716,2.282.177,3.411s-3.083.541-4.212-1S79.46,3.921,81,2.793s3.083.31,4.212,1.85" transform="translate(-15.682 -0.468)" fill="#fff"/>
      <path id="패스_468" data-name="패스 468" d="M97.05,3.8c-.224,1.9-1.119,2.481-3.015,2.258S92.5,5.015,92.722,3.118a3.231,3.231,0,0,1,3.53-3.1c1.9.224,1.022,1.878.8,3.775" transform="translate(-18.124 0)" fill="#fff"/>
      <path id="패스_469" data-name="패스 469" d="M106.788,9.358c-1.185,1.5-3,2.057-4.5.872s-.079-2.633.491-4.455c.59-1.891,1.9-2.543,3.394-1.358a3.568,3.568,0,0,1,.615,4.941" transform="translate(-19.903 -0.748)" fill="#fff"/>
    </g>
  </g>
</svg>
